<svg width="55" height="21" viewBox="0 0 55 21" fill="none" xmlns="http://www.w3.org/2000/svg">
<path d="M15.1477 12.0033C15.9246 12.9658 16.3165 14.0706 16.3165 15.3142C16.3165 16.4388 16.0361 17.4245 15.472 18.2778C14.9079 19.1312 14.0938 19.796 13.0297 20.2789C11.9657 20.7619 10.7057 21 9.24981 21H0.000976562V0H8.85121C10.3037 0 11.5603 0.231531 12.6142 0.691289C13.6682 1.15435 14.4687 1.79603 15.0092 2.61632C15.5531 3.43991 15.8233 4.37266 15.8233 5.41455C15.8233 6.63837 15.4889 7.66042 14.8234 8.48401C14.158 9.30761 13.2729 9.88975 12.165 10.2304C13.3743 10.4487 14.3708 11.0408 15.1477 12.0033ZM4.30111 8.66263H8.23304C9.25656 8.66263 10.047 8.43771 10.5976 7.98457C11.1516 7.53474 11.4286 6.88644 11.4286 6.043C11.4286 5.19956 11.1516 4.54797 10.5976 4.08821C10.0436 3.62845 9.25656 3.39691 8.23304 3.39691H4.30111V8.66263ZM11.0773 16.849C11.6617 16.366 11.9522 15.6847 11.9522 14.8015C11.9522 13.8986 11.6448 13.1907 11.03 12.6814C10.4152 12.1687 9.5876 11.914 8.54044 11.914H4.30111V17.57H8.63502C9.67881 17.57 10.4929 17.3286 11.0773 16.849Z" fill="white"/>
<path d="M32.5088 1.08654V0.0380249C28.6478 0.322479 24.9591 1.82413 21.3177 3.64993C25.4455 2.31035 29.3809 1.20561 32.5088 1.08654Z" fill="white"/>
<path d="M30.8178 2.19467V3.41848C25.6158 3.72609 21.14 5.50228 17.6539 8.09875C18.6741 5.58828 21.8257 3.49456 30.8178 2.19467Z" fill="white"/>
<path d="M29.2294 4.57233L29.4017 5.91521C19.2408 8.32315 16.1568 10.5293 22.3046 12.4014C11.3263 10.8072 19.9705 6.19305 29.2294 4.57233Z" fill="white"/>
<path d="M17.5118 19.9125V20.961C21.3728 20.6765 25.0615 19.1749 28.7029 17.3491C24.5785 18.6919 20.6431 19.7967 17.5118 19.9125Z" fill="white"/>
<path d="M19.2041 18.808V17.5842C24.4061 17.2766 28.8819 15.5004 32.368 12.9039C31.3512 15.4111 28.1962 17.5081 19.2041 18.808Z" fill="white"/>
<path d="M20.7926 16.4301L20.6203 15.0872C30.7812 12.6793 33.8653 10.4731 27.7174 8.60101C38.6957 10.1953 30.0549 14.8094 20.7926 16.4301Z" fill="white"/>
<path d="M35.9517 5.10176C36.8807 3.5075 38.1508 2.26383 39.7587 1.37408C41.3666 0.484336 43.1704 0.0378113 45.1702 0.0378113C47.5077 0.0378113 49.5547 0.62326 51.3147 1.79746C53.0712 2.97166 54.3008 4.5957 55 6.66957H50.1729C49.6932 5.69051 49.0176 4.95622 48.1495 4.4667C47.2814 3.97717 46.2748 3.73241 45.1364 3.73241C43.9169 3.73241 42.8326 4.01025 41.8834 4.56923C40.9342 5.12822 40.1944 5.91543 39.6641 6.93087C39.1338 7.94961 38.8703 9.14365 38.8703 10.513C38.8703 11.8625 39.1338 13.0532 39.6641 14.0786C40.1944 15.1073 40.9342 15.8978 41.8834 16.4568C42.8326 17.0158 43.9169 17.2936 45.1364 17.2936C46.2748 17.2936 47.278 17.0455 48.1495 16.5461C49.0176 16.0466 49.6932 15.309 50.1729 14.33H55C54.3008 16.4237 53.0779 18.0543 51.3282 19.2153C49.5784 20.3796 47.5246 20.9617 45.1702 20.9617C43.1704 20.9617 41.3666 20.5185 39.7587 19.6255C38.1508 18.7357 36.8807 17.4987 35.9517 15.911C35.0228 14.3267 34.5566 12.5273 34.5566 10.5097C34.56 8.50197 35.0228 6.69603 35.9517 5.10176Z" fill="white"/>
</svg>
