<svg width="65" height="26" viewBox="0 0 65 26" fill="none" xmlns="http://www.w3.org/2000/svg">
<path d="M17.9013 14.7897C18.8195 15.9355 19.2826 17.2507 19.2826 18.7312C19.2826 20.07 18.9512 21.2434 18.2845 22.2593C17.6178 23.2752 16.6557 24.0667 15.3981 24.6416C14.1406 25.2165 12.6515 25.5 10.9308 25.5H0V0.5H10.4597C12.1764 0.5 13.6615 0.775633 14.9071 1.32296C16.1527 1.87423 17.0988 2.63813 17.7376 3.61467C18.3803 4.59514 18.6997 5.70554 18.6997 6.9459C18.6997 8.40282 18.3045 9.61954 17.518 10.6C16.7315 11.5805 15.6856 12.2735 14.3761 12.6791C15.8053 12.939 16.9831 13.6438 17.9013 14.7897ZM5.08215 10.8126H9.72912C10.9388 10.8126 11.873 10.5449 12.5237 10.0054C13.1784 9.46992 13.5058 8.69814 13.5058 7.69404C13.5058 6.68995 13.1784 5.91425 12.5237 5.36692C11.869 4.81958 10.9388 4.54394 9.72912 4.54394H5.08215V10.8126ZM13.0906 20.5583C13.7813 19.9834 14.1246 19.1722 14.1246 18.1209C14.1246 17.0459 13.7613 16.2033 13.0347 15.5969C12.3081 14.9865 11.33 14.6833 10.0924 14.6833H5.08215V21.4167H10.2042C11.4378 21.4167 12.3999 21.1292 13.0906 20.5583Z" fill="#253A7B"/>
<path d="M38.4197 1.79364V0.54541C33.8566 0.884046 29.497 2.67173 25.1934 4.8453C30.0719 3.25056 34.7229 1.93539 38.4197 1.79364Z" fill="#253A7B"/>
<path d="M36.4211 3.11255V4.56946C30.273 4.93566 24.9833 7.05018 20.8633 10.1412C22.0689 7.15256 25.7937 4.66004 36.4211 3.11255Z" fill="#253A7B"/>
<path d="M34.5438 5.9436L34.7474 7.54228C22.7387 10.4089 19.0938 13.0353 26.3597 15.264C13.3849 13.366 23.6011 7.87304 34.5438 5.9436Z" fill="#253A7B"/>
<path d="M20.6953 24.2062V25.4544C25.2585 25.1158 29.618 23.3281 33.9217 21.1545C29.0471 22.7532 24.3961 24.0684 20.6953 24.2062Z" fill="#253A7B"/>
<path d="M22.6953 22.891V21.434C28.8434 21.0678 34.1331 18.9533 38.2531 15.8623C37.0515 18.847 33.3227 21.3435 22.6953 22.891Z" fill="#253A7B"/>
<path d="M24.5727 20.0601L24.3691 18.4614C36.3778 15.5948 40.0228 12.9684 32.7569 10.7397C45.7317 12.6377 35.5195 18.1307 24.5727 20.0601Z" fill="#253A7B"/>
<path d="M42.4886 6.57392C43.5865 4.67599 45.0876 3.19543 46.9879 2.13621C48.8882 1.07699 51.0201 0.54541 53.3835 0.54541C56.1461 0.54541 58.5655 1.24237 60.6454 2.64023C62.7214 4.03809 64.1746 5.97146 65.001 8.44036H59.296C58.7291 7.27482 57.9307 6.40066 56.9047 5.81789C55.8787 5.23513 54.689 4.94374 53.3436 4.94374C51.9024 4.94374 50.6209 5.2745 49.499 5.93996C48.3772 6.60542 47.5029 7.54258 46.8761 8.75143C46.2493 9.96422 45.9379 11.3857 45.9379 13.0159C45.9379 14.6224 46.2493 16.04 46.8761 17.2606C47.5029 18.4852 48.3772 19.4263 49.499 20.0918C50.6209 20.7573 51.9024 21.088 53.3436 21.088C54.689 21.088 55.8747 20.7927 56.9047 20.1981C57.9307 19.6035 58.7291 18.7254 59.296 17.5599H65.001C64.1746 20.0524 62.7294 21.9937 60.6614 23.3758C58.5934 24.7618 56.1661 25.4548 53.3835 25.4548C51.0201 25.4548 48.8882 24.9272 46.9879 23.864C45.0876 22.8048 43.5865 21.3322 42.4886 19.4421C41.3908 17.556 40.8398 15.4139 40.8398 13.0119C40.8438 10.6218 41.3908 8.47186 42.4886 6.57392Z" fill="#253A7B"/>
</svg>
