<svg width="141" height="56" viewBox="0 0 141 56" fill="none" xmlns="http://www.w3.org/2000/svg">
<rect width="56" height="56" rx="8" fill="#253A7B"/>
<path d="M37.8872 15.4031V14C32.7578 14.3807 27.8572 16.3902 23.0195 18.8335C28.5035 17.0408 33.7316 15.5625 37.8872 15.4031Z" fill="white"/>
<path d="M35.6406 16.886V18.5237C28.7295 18.9353 22.7834 21.3123 18.1521 24.7869C19.5074 21.4273 23.6944 18.6255 35.6406 16.886Z" fill="white"/>
<path d="M33.5303 20.0684L33.7592 21.8654C20.2602 25.0877 16.163 28.0401 24.3306 30.5453C9.74564 28.4119 21.2296 22.2372 33.5303 20.0684Z" fill="white"/>
<path d="M17.9631 40.5967V41.9999C23.0925 41.6192 27.9931 39.6097 32.8308 37.1664C27.3513 38.9634 22.1232 40.4418 17.9631 40.5967Z" fill="white"/>
<path d="M20.2112 39.1186V37.4809C27.1222 37.0692 33.0684 34.6923 37.6996 31.2177C36.3488 34.5728 32.1574 37.3791 20.2112 39.1186Z" fill="white"/>
<path d="M22.3216 35.9364L22.0928 34.1394C35.5917 30.9171 39.6889 27.9647 31.5214 25.4595C46.1063 27.5929 34.6268 33.7676 22.3216 35.9364Z" fill="white"/>
<path d="M93.95 27.76C95.13 27.98 96.1 28.57 96.86 29.53C97.62 30.49 98 31.59 98 32.83C98 33.95 97.72 34.94 97.16 35.8C96.62 36.64 95.83 37.3 94.79 37.78C93.75 38.26 92.52 38.5 91.1 38.5H82.07V17.56H90.71C92.13 17.56 93.35 17.79 94.37 18.25C95.41 18.71 96.19 19.35 96.71 20.17C97.25 20.99 97.52 21.92 97.52 22.96C97.52 24.18 97.19 25.2 96.53 26.02C95.89 26.84 95.03 27.42 93.95 27.76ZM86.27 26.2H90.11C91.11 26.2 91.88 25.98 92.42 25.54C92.96 25.08 93.23 24.43 93.23 23.59C93.23 22.75 92.96 22.1 92.42 21.64C91.88 21.18 91.11 20.95 90.11 20.95H86.27V26.2ZM90.5 35.08C91.52 35.08 92.31 34.84 92.87 34.36C93.45 33.88 93.74 33.2 93.74 32.32C93.74 31.42 93.44 30.72 92.84 30.22C92.24 29.7 91.43 29.44 90.41 29.44H86.27V35.08H90.5ZM108.577 38.71C107.117 38.71 105.797 38.46 104.617 37.96C103.457 37.46 102.537 36.74 101.857 35.8C101.177 34.86 100.827 33.75 100.807 32.47H105.307C105.367 33.33 105.667 34.01 106.207 34.51C106.767 35.01 107.527 35.26 108.487 35.26C109.467 35.26 110.237 35.03 110.797 34.57C111.357 34.09 111.637 33.47 111.637 32.71C111.637 32.09 111.447 31.58 111.067 31.18C110.687 30.78 110.207 30.47 109.627 30.25C109.067 30.01 108.287 29.75 107.287 29.47C105.927 29.07 104.817 28.68 103.957 28.3C103.117 27.9 102.387 27.31 101.767 26.53C101.167 25.73 100.867 24.67 100.867 23.35C100.867 22.11 101.177 21.03 101.797 20.11C102.417 19.19 103.287 18.49 104.407 18.01C105.527 17.51 106.807 17.26 108.247 17.26C110.407 17.26 112.157 17.79 113.497 18.85C114.857 19.89 115.607 21.35 115.747 23.23H111.127C111.087 22.51 110.777 21.92 110.197 21.46C109.637 20.98 108.887 20.74 107.947 20.74C107.127 20.74 106.467 20.95 105.967 21.37C105.487 21.79 105.247 22.4 105.247 23.2C105.247 23.76 105.427 24.23 105.787 24.61C106.167 24.97 106.627 25.27 107.167 25.51C107.727 25.73 108.507 25.99 109.507 26.29C110.867 26.69 111.977 27.09 112.837 27.49C113.697 27.89 114.437 28.49 115.057 29.29C115.677 30.09 115.987 31.14 115.987 32.44C115.987 33.56 115.697 34.6 115.117 35.56C114.537 36.52 113.687 37.29 112.567 37.87C111.447 38.43 110.117 38.71 108.577 38.71ZM118.609 28C118.609 25.94 119.069 24.1 119.989 22.48C120.929 20.84 122.199 19.57 123.799 18.67C125.419 17.75 127.229 17.29 129.229 17.29C131.569 17.29 133.619 17.89 135.379 19.09C137.139 20.29 138.369 21.95 139.069 24.07H134.239C133.759 23.07 133.079 22.32 132.199 21.82C131.339 21.32 130.339 21.07 129.199 21.07C127.979 21.07 126.889 21.36 125.929 21.94C124.989 22.5 124.249 23.3 123.709 24.34C123.189 25.38 122.929 26.6 122.929 28C122.929 29.38 123.189 30.6 123.709 31.66C124.249 32.7 124.989 33.51 125.929 34.09C126.889 34.65 127.979 34.93 129.199 34.93C130.339 34.93 131.339 34.68 132.199 34.18C133.079 33.66 133.759 32.9 134.239 31.9H139.069C138.369 34.04 137.139 35.71 135.379 36.91C133.639 38.09 131.589 38.68 129.229 38.68C127.229 38.68 125.419 38.23 123.799 37.33C122.199 36.41 120.929 35.14 119.989 33.52C119.069 31.9 118.609 30.06 118.609 28Z" fill="#151D48"/>
</svg>
