<svg width="58" height="23" viewBox="0 0 58 23" fill="none" xmlns="http://www.w3.org/2000/svg">
<path d="M11.95 11.26C13.13 11.48 14.1 12.07 14.86 13.03C15.62 13.99 16 15.09 16 16.33C16 17.45 15.72 18.44 15.16 19.3C14.62 20.14 13.83 20.8 12.79 21.28C11.75 21.76 10.52 22 9.1 22H0.0700002V1.06H8.71C10.13 1.06 11.35 1.29 12.37 1.75C13.41 2.21 14.19 2.85 14.71 3.67C15.25 4.49 15.52 5.42 15.52 6.46C15.52 7.68 15.19 8.7 14.53 9.52C13.89 10.34 13.03 10.92 11.95 11.26ZM4.27 9.7H8.11C9.11 9.7 9.88 9.48 10.42 9.04C10.96 8.58 11.23 7.93 11.23 7.09C11.23 6.25 10.96 5.6 10.42 5.14C9.88 4.68 9.11 4.45 8.11 4.45H4.27V9.7ZM8.5 18.58C9.52 18.58 10.31 18.34 10.87 17.86C11.45 17.38 11.74 16.7 11.74 15.82C11.74 14.92 11.44 14.22 10.84 13.72C10.24 13.2 9.43 12.94 8.41 12.94H4.27V18.58H8.5ZM26.5773 22.21C25.1173 22.21 23.7973 21.96 22.6173 21.46C21.4573 20.96 20.5373 20.24 19.8573 19.3C19.1773 18.36 18.8273 17.25 18.8073 15.97H23.3073C23.3673 16.83 23.6673 17.51 24.2073 18.01C24.7673 18.51 25.5273 18.76 26.4873 18.76C27.4673 18.76 28.2373 18.53 28.7973 18.07C29.3573 17.59 29.6373 16.97 29.6373 16.21C29.6373 15.59 29.4473 15.08 29.0673 14.68C28.6873 14.28 28.2073 13.97 27.6273 13.75C27.0673 13.51 26.2873 13.25 25.2873 12.97C23.9273 12.57 22.8173 12.18 21.9573 11.8C21.1173 11.4 20.3873 10.81 19.7673 10.03C19.1673 9.23 18.8673 8.17 18.8673 6.85C18.8673 5.61 19.1773 4.53 19.7973 3.61C20.4173 2.69 21.2873 1.99 22.4073 1.51C23.5273 1.01 24.8073 0.76 26.2473 0.76C28.4073 0.76 30.1573 1.29 31.4973 2.35C32.8573 3.39 33.6073 4.85 33.7473 6.73H29.1273C29.0873 6.01 28.7773 5.42 28.1973 4.96C27.6373 4.48 26.8873 4.24 25.9473 4.24C25.1273 4.24 24.4673 4.45 23.9673 4.87C23.4873 5.29 23.2473 5.9 23.2473 6.7C23.2473 7.26 23.4273 7.73 23.7873 8.11C24.1673 8.47 24.6273 8.77 25.1673 9.01C25.7273 9.23 26.5073 9.49 27.5073 9.79C28.8673 10.19 29.9773 10.59 30.8373 10.99C31.6973 11.39 32.4373 11.99 33.0573 12.79C33.6773 13.59 33.9873 14.64 33.9873 15.94C33.9873 17.06 33.6973 18.1 33.1173 19.06C32.5373 20.02 31.6873 20.79 30.5673 21.37C29.4473 21.93 28.1173 22.21 26.5773 22.21ZM36.6086 11.5C36.6086 9.44 37.0686 7.6 37.9886 5.98C38.9286 4.34 40.1986 3.07 41.7986 2.17C43.4186 1.25 45.2286 0.789999 47.2286 0.789999C49.5686 0.789999 51.6186 1.39 53.3786 2.59C55.1386 3.79 56.3686 5.45 57.0686 7.57H52.2386C51.7586 6.57 51.0786 5.82 50.1986 5.32C49.3386 4.82 48.3386 4.57 47.1986 4.57C45.9786 4.57 44.8886 4.86 43.9286 5.44C42.9886 6 42.2486 6.8 41.7086 7.84C41.1886 8.88 40.9286 10.1 40.9286 11.5C40.9286 12.88 41.1886 14.1 41.7086 15.16C42.2486 16.2 42.9886 17.01 43.9286 17.59C44.8886 18.15 45.9786 18.43 47.1986 18.43C48.3386 18.43 49.3386 18.18 50.1986 17.68C51.0786 17.16 51.7586 16.4 52.2386 15.4H57.0686C56.3686 17.54 55.1386 19.21 53.3786 20.41C51.6386 21.59 49.5886 22.18 47.2286 22.18C45.2286 22.18 43.4186 21.73 41.7986 20.83C40.1986 19.91 38.9286 18.64 37.9886 17.02C37.0686 15.4 36.6086 13.56 36.6086 11.5Z" fill="#151D48"/>
</svg>
