<svg width="40" height="40" viewBox="0 0 40 40" fill="none" xmlns="http://www.w3.org/2000/svg">
<path d="M34.1245 2.00446V0C26.7967 0.543798 19.796 3.41455 12.8849 6.90497C20.7191 4.34406 28.1879 2.2321 34.1245 2.00446Z" fill="white"/>
<path d="M30.915 4.12305V6.46263C21.0421 7.05069 12.5476 10.4463 5.93152 15.41C7.86763 10.6107 13.8491 6.60808 30.915 4.12305Z" fill="white"/>
<path d="M27.9004 8.66895L28.2274 11.2362C8.94321 15.8395 3.09002 20.0571 14.758 23.636C-6.07765 20.5882 10.328 11.7673 27.9004 8.66895Z" fill="white"/>
<path d="M5.66174 37.9952V39.9997C12.9895 39.4559 19.9902 36.5852 26.9012 33.0947C19.0735 35.662 11.6047 37.7739 5.66174 37.9952Z" fill="white"/>
<path d="M8.87347 35.8837V33.5441C18.7463 32.956 27.2409 29.5604 33.857 24.5967C31.9273 29.3897 25.9394 33.3986 8.87347 35.8837Z" fill="white"/>
<path d="M11.8884 31.3377L11.5614 28.7705C30.8456 24.1672 36.6988 19.9496 25.0308 16.3706C45.8664 19.4184 29.4672 28.2393 11.8884 31.3377Z" fill="white"/>
</svg>
