<svg width="56" height="56" viewBox="0 0 56 56" fill="none" xmlns="http://www.w3.org/2000/svg">
<rect width="56" height="56" rx="8" fill="#253A7B"/>
<path d="M42.1245 10.0045V8C34.7967 8.5438 27.796 11.4145 20.8849 14.905C28.7191 12.3441 36.1879 10.2321 42.1245 10.0045Z" fill="white"/>
<path d="M38.915 12.123V14.4626C29.0421 15.0507 20.5476 18.4463 13.9315 23.41C15.8676 18.6107 21.8491 14.6081 38.915 12.123Z" fill="white"/>
<path d="M35.9004 16.6689L36.2274 19.2362C16.9432 23.8395 11.09 28.0571 22.758 31.636C1.92235 28.5882 18.328 19.7673 35.9004 16.6689Z" fill="white"/>
<path d="M13.6617 45.9952V47.9997C20.9895 47.4559 27.9902 44.5852 34.9012 41.0947C27.0735 43.662 19.6047 45.7739 13.6617 45.9952Z" fill="white"/>
<path d="M16.8735 43.8837V41.5441C26.7463 40.956 35.2409 37.5604 41.857 32.5967C39.9273 37.3897 33.9394 41.3986 16.8735 43.8837Z" fill="white"/>
<path d="M19.8884 39.3377L19.5614 36.7705C38.8456 32.1672 44.6988 27.9496 33.0308 24.3706C53.8664 27.4184 37.4672 36.2393 19.8884 39.3377Z" fill="white"/>
</svg>
