<svg width="69" height="43" viewBox="0 0 69 43" fill="none" xmlns="http://www.w3.org/2000/svg">
<path d="M4.9507 40.4945H4.57721C4.52999 40.4945 4.47418 40.4816 4.4055 40.4687C4.33681 40.4516 4.26813 40.4344 4.19515 40.4086C4.12218 40.3872 4.05778 40.3614 3.99339 40.3314C3.929 40.3056 3.88177 40.2798 3.84314 40.2541C3.67142 40.3271 3.48254 40.3958 3.28507 40.4644C3.0876 40.5288 2.88584 40.5889 2.67978 40.6404C2.47372 40.692 2.26337 40.7349 2.05731 40.7649C1.84696 40.795 1.6495 40.8164 1.45632 40.8207C1.26314 40.825 1.08284 40.8164 0.915414 40.7907C0.747993 40.7649 0.597753 40.722 0.468968 40.6576C0.340183 40.5932 0.23715 40.5117 0.155586 40.4043C0.0740215 40.297 0.0268018 40.1639 0.00963037 40.0094C-0.00754101 39.8506 0.0139206 39.666 0.0740204 39.4556C0.129827 39.241 0.232852 39.0006 0.378809 38.7258C0.258609 38.9705 0.198512 39.1766 0.19422 39.3526C0.189927 39.5286 0.228562 39.6746 0.314419 39.7905C0.395983 39.9064 0.51619 40.0008 0.670732 40.0609C0.825275 40.1253 1.00128 40.1682 1.20304 40.194C1.4048 40.2197 1.61945 40.2197 1.85126 40.2069C2.08308 40.194 2.31489 40.1639 2.5467 40.121C2.77852 40.0781 3.00604 40.0266 3.22926 39.9665C3.45249 39.9064 3.65425 39.8377 3.83884 39.7647C4.02343 39.6917 4.17798 39.6145 4.31106 39.5329C4.43984 39.4513 4.52999 39.3741 4.58151 39.2968C4.57721 39.3268 4.56434 39.3655 4.54287 39.4084C4.52141 39.4513 4.49994 39.5028 4.47419 39.5544C4.44843 39.6059 4.42268 39.6617 4.39692 39.7175C4.37116 39.7733 4.35399 39.8291 4.34111 39.8806L4.76181 39.9064H4.95928V40.4945H4.9507ZM2.10882 41.396C2.19039 41.4818 2.26766 41.5634 2.33634 41.6364C2.40932 41.7094 2.4866 41.7823 2.56816 41.8639L2.10882 42.3232C2.02297 42.2417 1.9414 42.1644 1.86843 42.0957C1.79545 42.027 1.72247 41.9498 1.64091 41.8639L2.10882 41.396Z" fill="#253A7B"/>
<path d="M6.0512 39.9062V40.4901H4.83203V39.9062H6.0512Z" fill="#253A7B"/>
<path d="M7.10979 39.9062V40.4901H5.89062V39.9062H7.10979Z" fill="#253A7B"/>
<path d="M8.1723 39.9062V40.4901H6.95312V39.9062H8.1723Z" fill="#253A7B"/>
<path d="M8.02539 40.4942V39.9018H9.53218C9.5193 39.8202 9.49784 39.7387 9.46779 39.6571C9.44204 39.5755 9.4077 39.494 9.37765 39.4167C9.3433 39.3394 9.30895 39.2708 9.27461 39.2064C9.24027 39.142 9.20592 39.0862 9.18017 39.0432C9.23597 38.9617 9.29608 38.8801 9.35189 38.7985C9.4077 38.717 9.4635 38.6311 9.5236 38.5496C9.6481 38.717 9.74253 38.8887 9.79834 39.069C9.85414 39.2493 9.8842 39.4296 9.8842 39.6185C9.8842 39.7644 9.87132 39.9147 9.84557 40.0606C9.81981 40.2109 9.78117 40.3568 9.73395 40.4985H8.02539V40.4942ZM8.57489 41.2111C8.63928 41.2798 8.69937 41.3399 8.75518 41.4C8.81099 41.4558 8.87109 41.5159 8.93548 41.576L9.30037 41.2111C9.37334 41.2841 9.43774 41.3528 9.50213 41.4172C9.56223 41.4816 9.63092 41.546 9.70389 41.6189L9.30037 42.0225C9.23168 41.9538 9.17159 41.8937 9.11149 41.8379C9.05569 41.7821 8.99558 41.7263 8.93548 41.6619L8.57489 42.0225C8.50191 41.9495 8.43322 41.8808 8.36883 41.8207C8.30873 41.7606 8.24004 41.6919 8.16706 41.6189L8.57489 41.2111Z" fill="#253A7B"/>
<path d="M11.5702 38.7729C11.6646 38.8846 11.7419 39.0219 11.802 39.1765C11.8578 39.3353 11.9007 39.5027 11.9222 39.6787C11.9437 39.8547 11.948 40.0393 11.9308 40.2282C11.9179 40.4171 11.8836 40.606 11.8363 40.7863C11.7891 40.9709 11.7247 41.1426 11.6432 41.3057C11.5616 41.4689 11.4672 41.6148 11.3555 41.7436C11.2439 41.8681 11.1194 41.9711 10.9778 42.0527C10.8361 42.1299 10.6816 42.1772 10.5142 42.1858C10.4669 42.19 10.4068 42.1858 10.3296 42.1686C10.2566 42.1514 10.175 42.13 10.0892 42.1042C10.0033 42.0784 9.91745 42.0484 9.83159 42.0183C9.74573 41.9883 9.66846 41.9582 9.59977 41.9282C9.53109 41.9024 9.47528 41.8767 9.42806 41.8595C9.38513 41.8423 9.35938 41.8295 9.35938 41.8295C9.51821 41.838 9.66845 41.8466 9.81012 41.8509C9.95178 41.8552 10.0892 41.8466 10.2222 41.8252C10.3553 41.8037 10.4798 41.7651 10.6043 41.7093C10.7288 41.6534 10.849 41.5719 10.9735 41.4646C11.0937 41.3572 11.2182 41.2156 11.3384 41.0482C11.4629 40.8764 11.5874 40.6704 11.7161 40.4171C11.7161 40.3184 11.6947 40.2196 11.6603 40.1252C11.626 40.0308 11.5831 39.9363 11.5359 39.8462C11.4843 39.756 11.4328 39.6659 11.3727 39.5843C11.3169 39.4984 11.2611 39.4212 11.2139 39.3439C11.274 39.2452 11.3341 39.1507 11.3899 39.0606C11.4457 38.9704 11.5058 38.876 11.5702 38.7729Z" fill="#253A7B"/>
<path d="M13.7592 40.2842C13.4887 40.4216 13.2569 40.516 13.068 40.5675C12.8791 40.619 12.7246 40.6405 12.6087 40.6233C12.4928 40.6105 12.4069 40.5675 12.3511 40.4946C12.2996 40.4216 12.2696 40.3271 12.2738 40.2155C12.2781 40.1039 12.2996 39.9708 12.3468 39.8249C12.394 39.6789 12.4627 39.5201 12.5486 39.3569C12.4627 39.5931 12.4413 39.7648 12.4885 39.8721C12.5314 39.9794 12.6387 40.0309 12.7976 40.0309C12.8577 40.0309 12.9478 40.0223 13.0594 40.0009C13.171 39.9794 13.287 39.9494 13.4114 39.9021C13.5316 39.8549 13.6475 39.7948 13.7592 39.7218C13.8665 39.6489 13.9481 39.5544 14.0039 39.4471C13.9609 39.2582 13.9137 39.0564 13.8665 38.8461C13.8193 38.6357 13.772 38.434 13.7248 38.2408C13.7935 38.1593 13.8622 38.082 13.9266 38.0004C13.991 37.9231 14.0597 37.8416 14.1326 37.76C14.167 37.8931 14.197 38.0391 14.2185 38.1979C14.24 38.3567 14.2657 38.5199 14.2915 38.683C14.3172 38.8461 14.343 39.0049 14.373 39.1552C14.4031 39.3097 14.4374 39.4428 14.4804 39.5587C14.5233 39.6746 14.5791 39.7648 14.6392 39.8292C14.7036 39.8936 14.7809 39.9193 14.871 39.9064H14.9912V40.4903H14.768C14.6478 40.4774 14.549 40.4559 14.4804 40.4216C14.4117 40.3872 14.3516 40.34 14.3086 40.2713C14.2657 40.2026 14.2271 40.1168 14.2013 40.0095C14.1756 39.9021 14.1412 39.7648 14.1069 39.6059L13.7592 40.2842Z" fill="#253A7B"/>
<path d="M16.4903 40.4944C16.3958 40.4901 16.3057 40.4729 16.2198 40.4472C16.1383 40.4214 16.0567 40.3828 15.9837 40.3313C15.8893 40.3785 15.7905 40.4171 15.6961 40.4472C15.6017 40.4729 15.5029 40.4901 15.3999 40.4944H14.8633V39.9106H15.2883C15.387 39.9063 15.4814 39.8891 15.5802 39.859C15.6746 39.829 15.7691 39.7904 15.8592 39.7431C15.9494 39.6959 16.0352 39.6444 16.1168 39.58C16.1983 39.5199 16.2756 39.4555 16.3443 39.3911C16.3357 39.4426 16.3228 39.507 16.3057 39.5886C16.2885 39.6659 16.267 39.7646 16.237 39.8805L16.6663 39.9149H17.044V40.4987H16.4903V40.4944ZM15.6746 37.7427C15.739 37.8114 15.7991 37.8715 15.8549 37.9316C15.9107 37.9874 15.9708 38.0475 16.0352 38.1076L16.4001 37.7427C16.4731 37.8157 16.5375 37.8843 16.6019 37.9487C16.662 38.0131 16.7307 38.0775 16.8036 38.1505L16.4001 38.554C16.3314 38.4853 16.2713 38.4252 16.2112 38.3694C16.1554 38.3136 16.0953 38.2578 16.0352 38.1934L15.6746 38.554C15.6016 38.481 15.533 38.4124 15.4686 38.3523C15.4085 38.2922 15.3398 38.2235 15.2668 38.1505L15.6746 37.7427Z" fill="#253A7B"/>
<path d="M17.9674 37.0339L18.0103 39.9101H18.5212V40.494H16.9199V39.9101H17.5638L17.4694 37.4289C17.4694 37.4203 17.4823 37.4031 17.5123 37.3774C17.5424 37.3516 17.5767 37.3216 17.624 37.2829C17.6712 37.2486 17.7227 37.2057 17.7828 37.167C17.8429 37.1241 17.8987 37.0855 17.9588 37.0425L17.9674 37.0339Z" fill="#253A7B"/>
<path d="M19.442 39.9064C19.4377 39.7733 19.4291 39.6274 19.4205 39.4728C19.4119 39.3183 19.3948 39.1594 19.3819 39.0006C19.369 38.8418 19.3518 38.6829 19.3347 38.5284C19.3175 38.3738 19.3003 38.2236 19.2832 38.0862C19.266 37.9488 19.2531 37.8244 19.2402 37.7127C19.2273 37.6011 19.2188 37.511 19.2102 37.4423C19.2188 37.4251 19.2359 37.3951 19.2531 37.3564C19.2703 37.3178 19.2874 37.2706 19.3089 37.2234C19.3261 37.1761 19.3476 37.1289 19.369 37.0774C19.3905 37.0302 19.4119 36.9873 19.4291 36.9529C19.4463 36.9186 19.4634 36.8971 19.4806 36.8842C19.4978 36.8713 19.5107 36.8799 19.5193 36.9014C19.5407 36.9572 19.5622 37.0087 19.5837 37.0602C19.6051 37.1117 19.6309 37.159 19.6609 37.2019C19.691 37.2491 19.7296 37.292 19.7768 37.3393C19.824 37.3865 19.8842 37.4294 19.9528 37.4723C19.9571 37.4766 19.9571 37.4938 19.9528 37.5196C19.9485 37.5453 19.9357 37.5797 19.9228 37.6183C19.9099 37.6569 19.8884 37.6956 19.8713 37.7385C19.8498 37.7814 19.8283 37.8201 19.8069 37.8544C19.7854 37.8887 19.764 37.9188 19.7468 37.9446C19.7296 37.966 19.7124 37.9789 19.7039 37.9789C19.7081 38.0562 19.7167 38.142 19.721 38.2365C19.7253 38.3266 19.7339 38.4211 19.7382 38.5155C19.7425 38.6099 19.7468 38.7001 19.7511 38.7903C19.7554 38.8804 19.7597 38.962 19.7639 39.0349C19.7682 39.1079 19.7682 39.1766 19.7682 39.2324C19.7682 39.2882 19.7682 39.3269 19.7682 39.3483C19.7682 39.5243 19.7468 39.7089 19.7081 39.8978C19.6695 40.0867 19.6094 40.2842 19.5278 40.4945H18.3945V39.9064H19.442Z" fill="#253A7B"/>
<path d="M25.44 39.8718C25.44 40.0821 25.41 40.2796 25.3542 40.4599C25.2984 40.6402 25.2168 40.8076 25.1138 40.9579C25.0108 41.1081 24.8906 41.2412 24.7489 41.3571C24.6072 41.473 24.4527 41.5717 24.281 41.649C24.1136 41.7263 23.9333 41.7864 23.7444 41.8293C23.5555 41.8723 23.358 41.8937 23.1605 41.8937C22.9373 41.8937 22.7441 41.8637 22.5853 41.8036C22.4265 41.7435 22.2934 41.6662 22.1903 41.5632C22.0873 41.4601 22.0143 41.3442 21.9671 41.2112C21.9199 41.0781 21.8984 40.9364 21.8984 40.7862C21.8984 40.6703 21.9113 40.5629 21.9285 40.4642C21.9457 40.3698 21.9757 40.2624 22.0101 40.1551C22.0487 40.0435 22.0959 39.919 22.1517 39.773C22.2075 39.6314 22.2762 39.4511 22.3578 39.2364C22.3535 39.2622 22.3449 39.2966 22.3277 39.3524C22.3106 39.4039 22.2977 39.464 22.2762 39.5284C22.259 39.5928 22.2376 39.6614 22.2204 39.7344C22.1989 39.8074 22.1818 39.8718 22.1646 39.9362C22.1474 40.0006 22.1303 40.0564 22.1217 40.0993C22.1131 40.1465 22.1045 40.1766 22.1045 40.1938C22.1045 40.3826 22.1388 40.5458 22.2032 40.6788C22.2676 40.8162 22.3578 40.9278 22.4737 41.018C22.5896 41.1081 22.7184 41.1768 22.8729 41.2197C23.0232 41.2627 23.182 41.2884 23.3494 41.2884C23.5168 41.2884 23.6886 41.2713 23.8646 41.2326C24.0406 41.194 24.208 41.1382 24.3711 41.0609C24.5342 40.9836 24.6888 40.8935 24.8305 40.7819C24.9721 40.6703 25.0923 40.5458 25.1953 40.4041C25.1739 40.2839 25.1524 40.168 25.1267 40.0521C25.1009 39.9362 25.0666 39.8246 25.0236 39.713C24.985 39.6013 24.9335 39.4897 24.8777 39.3781C24.8219 39.2665 24.7532 39.1592 24.6716 39.0476C24.736 38.9531 24.8004 38.8673 24.8562 38.79C24.912 38.7127 24.9764 38.6312 25.0451 38.5453C25.1052 38.6355 25.161 38.7385 25.2082 38.8501C25.2555 38.9617 25.2984 39.0819 25.3327 39.1978C25.3671 39.318 25.3928 39.4339 25.4143 39.5498C25.4315 39.6743 25.44 39.7773 25.44 39.8718ZM23.7615 37.6953C23.8431 37.7812 23.9204 37.8627 23.9933 37.9314C24.0663 38.0001 24.1393 38.0774 24.2252 38.1589L23.7658 38.6183C23.7229 38.5796 23.6843 38.5367 23.6456 38.5024C23.607 38.4637 23.5684 38.4294 23.534 38.3908C23.4954 38.3521 23.461 38.3178 23.4224 38.2791C23.3838 38.2405 23.3451 38.2019 23.3065 38.1589L23.7615 37.6953Z" fill="#253A7B"/>
<path d="M27.1171 38.773C27.2115 38.8846 27.2888 39.022 27.3489 39.1765C27.4047 39.3354 27.4476 39.5028 27.4691 39.6788C27.4905 39.8548 27.4948 40.0394 27.4777 40.2283C27.4648 40.4172 27.4304 40.6061 27.3832 40.7864C27.336 40.9709 27.2716 41.1427 27.19 41.3058C27.1085 41.4689 27.014 41.6149 26.9024 41.7436C26.7908 41.8681 26.6663 41.9712 26.5246 42.0527C26.383 42.13 26.2284 42.1772 26.061 42.1858C26.0138 42.1901 25.9537 42.1858 25.8764 42.1687C25.8035 42.1515 25.7219 42.13 25.636 42.1043C25.5502 42.0785 25.4643 42.0484 25.3785 42.0184C25.2926 41.9883 25.2153 41.9583 25.1466 41.9283C25.078 41.9025 25.0222 41.8767 24.9749 41.8596C24.932 41.8424 24.9062 41.8295 24.9062 41.8295C25.0651 41.8381 25.2153 41.8467 25.357 41.851C25.4987 41.8553 25.636 41.8467 25.7691 41.8252C25.9022 41.8038 26.0267 41.7651 26.1512 41.7093C26.2757 41.6535 26.3959 41.5719 26.5204 41.4646C26.6406 41.3573 26.765 41.2156 26.8852 41.0482C27.0097 40.8765 27.1342 40.6704 27.263 40.4172C27.263 40.3184 27.2416 40.2197 27.2072 40.1253C27.1729 40.0308 27.1299 39.9364 27.0827 39.8462C27.0312 39.7561 26.9797 39.6659 26.9196 39.5843C26.8638 39.4985 26.808 39.4212 26.7608 39.344C26.8209 39.2452 26.881 39.1508 26.9368 39.0606C26.9926 38.9705 27.0527 38.876 27.1171 38.773ZM26.5332 37.425C26.6234 37.5023 26.7049 37.5753 26.7822 37.644C26.8595 37.7084 26.9368 37.7814 27.0226 37.8543C26.9582 37.9445 26.8981 38.0261 26.838 38.099C26.7822 38.172 26.7221 38.2493 26.6577 38.3308C26.5762 38.2579 26.4989 38.1892 26.4259 38.1291C26.3529 38.069 26.28 38.0003 26.2027 37.9316L26.5332 37.425Z" fill="#253A7B"/>
<path d="M27.8887 37.5277C27.893 37.5191 27.9058 37.4891 27.9273 37.4462C27.9488 37.4032 27.9831 37.356 28.0217 37.3002C28.0604 37.2444 28.1076 37.1886 28.1548 37.1328C28.2063 37.077 28.2579 37.0255 28.318 36.9868L28.4553 39.3436C28.4553 39.4767 28.451 39.6097 28.4382 39.7471C28.4253 39.8845 28.4038 40.0176 28.3738 40.1506C28.3437 40.2837 28.3094 40.4082 28.2707 40.5284C28.2321 40.6486 28.1849 40.7602 28.1377 40.859L27.8887 37.5277Z" fill="#253A7B"/>
<path d="M30.8483 40.4942C30.801 40.6359 30.7452 40.7776 30.6809 40.9149C30.6165 41.0566 30.5349 41.194 30.4362 41.327C30.3374 41.4601 30.2215 41.5932 30.0841 41.7177C29.9468 41.8422 29.7879 41.9624 29.599 42.0783C29.5432 42.1169 29.4703 42.147 29.3844 42.1556C29.2985 42.1685 29.2041 42.1684 29.1011 42.1599C28.9981 42.1513 28.895 42.1341 28.7834 42.1083C28.6761 42.0826 28.5688 42.0568 28.4657 42.0225C28.3627 41.9924 28.264 41.9581 28.1738 41.9238C28.0837 41.8894 28.0064 41.8594 27.942 41.8293C27.8776 41.7993 27.8261 41.7778 27.7961 41.7563C27.7617 41.7392 27.7531 41.7263 27.7703 41.7263C27.7875 41.7263 27.8089 41.7306 27.839 41.7434C27.869 41.7563 27.9163 41.7692 27.9678 41.7821C28.0193 41.795 28.088 41.8079 28.1695 41.8207C28.2511 41.8336 28.3455 41.8422 28.4529 41.8422C28.5774 41.8422 28.7276 41.825 28.895 41.7864C29.0624 41.7477 29.2385 41.6791 29.4273 41.5803C29.6119 41.4816 29.8008 41.3442 29.994 41.1725C30.1872 41.0008 30.3718 40.7819 30.5478 40.5114C30.5006 40.5114 30.4447 40.5071 30.3889 40.5114C30.3331 40.5114 30.273 40.5157 30.2172 40.5157C30.1614 40.5157 30.1013 40.52 30.0455 40.52C29.9897 40.5243 29.9382 40.5243 29.891 40.5243C29.8438 40.5243 29.7922 40.52 29.7493 40.5157C29.7021 40.5114 29.6592 40.4985 29.6162 40.4771C29.5733 40.4556 29.5347 40.4298 29.496 40.3955C29.4574 40.3612 29.423 40.3139 29.393 40.2581C29.3715 40.2238 29.3587 40.1809 29.3501 40.1336C29.3415 40.0821 29.3372 40.0263 29.3372 39.9662C29.3372 39.8718 29.3458 39.773 29.3672 39.6657C29.3887 39.5584 29.4188 39.4554 29.4574 39.3523C29.496 39.2493 29.539 39.1506 29.5905 39.0561C29.642 38.9617 29.7021 38.8758 29.7622 38.8071C29.8223 38.7342 29.891 38.6784 29.9597 38.6354C30.0283 38.5925 30.1013 38.571 30.1743 38.571C30.243 38.571 30.3031 38.5968 30.3632 38.644C30.419 38.6912 30.4705 38.7556 30.5177 38.8329C30.5649 38.9102 30.6036 38.996 30.6379 39.0948C30.6723 39.1935 30.7023 39.2922 30.7281 39.391C30.7538 39.4897 30.771 39.5842 30.7882 39.6743C30.8011 39.7645 30.8139 39.846 30.8182 39.9104H31.2003V40.4942H30.8483ZM30.0026 39.1935C29.9468 39.1935 29.8953 39.2021 29.8523 39.2236C29.8094 39.245 29.7708 39.2708 29.7364 39.3051C29.7064 39.3395 29.6806 39.3781 29.6635 39.421C29.6463 39.464 29.6377 39.5112 29.6377 39.5541C29.6377 39.6357 29.6677 39.7129 29.7235 39.7816C29.7794 39.8503 29.8738 39.889 30.0026 39.9018H29.9983C30.0841 39.9104 30.1657 39.9147 30.2473 39.9104C30.3288 39.9104 30.4104 39.9061 30.492 39.8975C30.4362 39.743 30.3846 39.6185 30.3417 39.5241C30.2988 39.4296 30.2559 39.3566 30.2215 39.3094C30.1872 39.2622 30.1485 39.2278 30.1142 39.2107C30.0756 39.2021 30.0369 39.1935 30.0026 39.1935Z" fill="#253A7B"/>
<path d="M32.6993 40.4944C32.6048 40.4901 32.5147 40.4729 32.4288 40.4472C32.3472 40.4214 32.2657 40.3828 32.1927 40.3313C32.0983 40.3785 31.9995 40.4171 31.9051 40.4472C31.8106 40.4729 31.7119 40.4901 31.6089 40.4944H31.0723V39.9106H31.4973C31.596 39.9063 31.6904 39.8891 31.7892 39.859C31.8836 39.829 31.9781 39.7904 32.0682 39.7431C32.1584 39.6959 32.2442 39.6444 32.3258 39.58C32.4073 39.5199 32.4846 39.4555 32.5533 39.3911C32.5447 39.4426 32.5318 39.507 32.5147 39.5886C32.4975 39.6659 32.476 39.7646 32.446 39.8805L32.8753 39.9149H33.253V40.4987H32.6993V40.4944ZM31.8836 37.7427C31.948 37.8114 32.0081 37.8715 32.0639 37.9316C32.1197 37.9874 32.1798 38.0475 32.2442 38.1076L32.6091 37.7427C32.6821 37.8157 32.7465 37.8843 32.8109 37.9487C32.871 38.0131 32.9397 38.0775 33.0126 38.1505L32.6091 38.554C32.5404 38.4853 32.4803 38.4252 32.4202 38.3694C32.3644 38.3136 32.3043 38.2578 32.2442 38.1934L31.8836 38.554C31.8106 38.481 31.742 38.4124 31.6776 38.3523C31.6175 38.2922 31.5488 38.2235 31.4758 38.1505L31.8836 37.7427Z" fill="#253A7B"/>
<path d="M34.3227 39.9062V40.4901H33.1035V39.9062H34.3227Z" fill="#253A7B"/>
<path d="M35.3832 39.9062V40.4901H34.1641V39.9062H35.3832Z" fill="#253A7B"/>
<path d="M36.4438 39.9062V40.4901H35.2246V39.9062H36.4438Z" fill="#253A7B"/>
<path d="M38.8593 40.4943C38.8464 40.5201 38.825 40.5501 38.8035 40.5802C38.782 40.6102 38.7606 40.6445 38.7348 40.6703C38.7091 40.7004 38.6833 40.7261 38.6575 40.7476C38.6318 40.7691 38.606 40.7905 38.5803 40.8034L37.0949 40.1294C37.0306 40.1938 36.9705 40.2453 36.9104 40.2882C36.8503 40.3312 36.7945 40.3655 36.7386 40.3913C36.6828 40.417 36.627 40.4385 36.5755 40.4557C36.5197 40.4728 36.4682 40.4814 36.4167 40.49H36.3008V39.8976L36.6013 39.9019C36.6914 39.9019 36.7687 39.889 36.8417 39.859C36.9104 39.8332 36.9748 39.7946 37.0306 39.7473C37.0864 39.7001 37.1422 39.6486 37.1894 39.5842C37.2366 39.5241 37.2881 39.4597 37.3354 39.3953C37.3869 39.3266 37.4384 39.2537 37.5028 39.1807C37.5629 39.1077 37.6359 39.0433 37.7217 38.9832C37.8033 38.9231 37.902 38.8673 38.005 38.8244C38.1124 38.7815 38.2368 38.7514 38.3742 38.7385C38.43 38.7557 38.4815 38.7858 38.5245 38.8373C38.5674 38.8888 38.6103 38.9489 38.6533 39.0219C38.6919 39.0905 38.7305 39.1678 38.7649 39.2537C38.7992 39.3352 38.8336 39.4211 38.8722 39.4984C38.9065 39.5799 38.9452 39.6572 38.9795 39.7259C39.0181 39.7989 39.0568 39.8547 39.0997 39.9019H39.456V40.49H38.8593V40.4943ZM38.0437 39.3267C37.9664 39.3267 37.8805 39.3481 37.7904 39.3867C37.7002 39.4254 37.6101 39.4855 37.5242 39.5628C37.726 39.6615 37.8891 39.7431 38.0136 39.8032C38.1381 39.8633 38.2369 39.9105 38.3098 39.9448C38.3828 39.9792 38.4343 40.0049 38.4644 40.0178C38.4944 40.0307 38.5202 40.0436 38.5331 40.0479C38.4944 39.8847 38.4644 39.7559 38.43 39.6615C38.4 39.5671 38.3656 39.4941 38.3313 39.4426C38.2969 39.391 38.254 39.361 38.2068 39.3438C38.1639 39.3352 38.1081 39.3267 38.0437 39.3267Z" fill="#253A7B"/>
<path d="M40.5512 39.9062V40.4901H39.332V39.9062H40.5512Z" fill="#253A7B"/>
<path d="M41.4432 39.9064C41.4389 39.7733 41.4303 39.6274 41.4217 39.4728C41.4131 39.3183 41.4002 39.1594 41.3831 39.0006C41.3702 38.8418 41.353 38.6829 41.3358 38.5284C41.3187 38.3738 41.3015 38.2236 41.2843 38.0862C41.2672 37.9488 41.2543 37.8244 41.2414 37.7127C41.2285 37.6011 41.2199 37.511 41.2114 37.4423C41.2199 37.4251 41.2371 37.3951 41.2543 37.3564C41.2714 37.3178 41.2886 37.2706 41.3101 37.2234C41.3315 37.1761 41.3487 37.1289 41.3702 37.0774C41.3917 37.0302 41.4131 36.9873 41.4303 36.9529C41.4475 36.9186 41.4646 36.8971 41.4818 36.8842C41.499 36.8713 41.5119 36.8799 41.5204 36.9014C41.5419 36.9572 41.5634 37.0087 41.5848 37.0602C41.6063 37.1117 41.632 37.159 41.6621 37.2019C41.6921 37.2491 41.7308 37.292 41.778 37.3393C41.8252 37.3865 41.8853 37.4294 41.954 37.4723C41.9626 37.4766 41.9626 37.4938 41.954 37.5196C41.9497 37.5453 41.9368 37.5797 41.924 37.6183C41.9111 37.6569 41.8896 37.6956 41.8724 37.7385C41.851 37.7814 41.8295 37.8201 41.8081 37.8544C41.7866 37.8887 41.7651 37.9188 41.748 37.9446C41.7308 37.966 41.7136 37.9789 41.705 37.9789C41.7136 38.0562 41.7179 38.142 41.7265 38.2365C41.7308 38.3266 41.7394 38.4211 41.7437 38.5155C41.748 38.6099 41.7522 38.7001 41.7565 38.7903C41.7608 38.8804 41.7651 38.962 41.7694 39.0349C41.7737 39.1079 41.7737 39.1766 41.778 39.2324C41.778 39.2882 41.778 39.3269 41.778 39.3483C41.778 39.5243 41.7565 39.7089 41.7179 39.8978C41.6793 40.0867 41.6192 40.2842 41.5376 40.4945H40.4043V39.9064H41.4432Z" fill="#253A7B"/>
<path d="M42.3633 37.5277C42.3676 37.5191 42.3805 37.4891 42.4019 37.4462C42.4234 37.4032 42.4577 37.356 42.4964 37.3002C42.535 37.2444 42.5822 37.1886 42.6294 37.1328C42.6809 37.077 42.7325 37.0255 42.7926 36.9868L42.9299 39.3436C42.9299 39.4767 42.9256 39.6097 42.9128 39.7471C42.8999 39.8845 42.8784 40.0176 42.8484 40.1506C42.8183 40.2837 42.784 40.4082 42.7453 40.5284C42.7067 40.6486 42.6595 40.7602 42.6123 40.859L42.3633 37.5277Z" fill="#253A7B"/>
<path d="M46.552 40.3013C46.4017 40.3099 46.2515 40.34 46.1098 40.3829C45.9681 40.4258 45.8308 40.4816 45.6934 40.546C45.556 40.6104 45.423 40.6834 45.2942 40.7607C45.1654 40.8379 45.0366 40.9195 44.9121 40.9968C44.9465 40.9538 44.9937 40.898 45.0581 40.8336C45.1182 40.7692 45.1869 40.7091 45.2598 40.6448C45.3328 40.5804 45.4058 40.5203 45.4831 40.4602C45.5603 40.4044 45.629 40.3571 45.6934 40.3185C45.5603 40.3013 45.453 40.2756 45.3757 40.2498C45.2985 40.2241 45.2341 40.194 45.1911 40.1597C45.1482 40.1253 45.1225 40.0867 45.1096 40.0438C45.0967 40.0008 45.0881 39.9493 45.0881 39.8935C45.1096 39.7819 45.1439 39.6746 45.1954 39.563C45.247 39.4513 45.3028 39.3526 45.3671 39.2582C45.4315 39.1637 45.5045 39.0736 45.5775 38.9963C45.6548 38.9147 45.732 38.8461 45.8093 38.786C45.8866 38.7259 45.9639 38.6829 46.0368 38.6486C46.1098 38.6142 46.1785 38.5971 46.2386 38.5928C46.2644 38.5928 46.2901 38.5971 46.3202 38.6057C46.3459 38.6142 46.376 38.6314 46.3974 38.6572C46.4232 38.6786 46.4446 38.7087 46.4618 38.7387C46.479 38.7731 46.4962 38.8117 46.5048 38.8546C46.4876 38.8847 46.4704 38.919 46.4532 38.9448C46.4318 38.9748 46.4103 39.0006 46.3888 39.0307C46.3674 39.0607 46.3459 39.0865 46.3287 39.1165C46.3116 39.1466 46.2944 39.1766 46.2815 39.2109C46.2429 39.168 46.1914 39.1423 46.1313 39.1294C46.0712 39.1208 46.0111 39.1208 45.9467 39.1337C45.8823 39.1466 45.8222 39.1723 45.7621 39.2067C45.702 39.241 45.6505 39.2796 45.6033 39.3269C45.5603 39.3698 45.526 39.4213 45.5045 39.4728C45.4831 39.5243 45.4831 39.5758 45.5002 39.6274C45.5174 39.6789 45.556 39.7261 45.6161 39.769C45.6762 39.812 45.7664 39.8506 45.8823 39.8806C45.9295 39.8935 45.9896 39.8978 46.0583 39.8892C46.127 39.8806 46.2042 39.872 46.2858 39.8592C46.3674 39.8463 46.4532 39.8291 46.5477 39.8077C46.6378 39.7905 46.7323 39.7733 46.8224 39.7604L46.552 40.3013Z" fill="#253A7B"/>
<path d="M47.1836 37.5277C47.1836 37.5191 47.1965 37.4891 47.2222 37.4462C47.2437 37.4032 47.278 37.356 47.3167 37.3002C47.3553 37.2444 47.4025 37.1886 47.4498 37.1328C47.5013 37.077 47.5528 37.0255 47.6129 36.9868L47.7503 39.3436C47.7503 39.4767 47.746 39.6097 47.7331 39.7471C47.7202 39.8845 47.6987 40.0176 47.6687 40.1506C47.6386 40.2837 47.6043 40.4082 47.5657 40.5284C47.527 40.6486 47.4798 40.7602 47.4326 40.859L47.1836 37.5277Z" fill="#253A7B"/>
<path d="M49.464 37.8972C49.5327 37.9788 49.6014 38.0732 49.6615 38.1848C49.7216 38.2965 49.7731 38.4124 49.8203 38.5368C49.8633 38.6613 49.9019 38.7944 49.9276 38.9361C49.9534 39.0778 49.9706 39.2151 49.9749 39.3568C49.9792 39.5027 49.9706 39.6444 49.9448 39.7732C49.9191 39.902 49.859 40.0179 49.7602 40.1209C49.6615 40.2239 49.5198 40.3098 49.3352 40.3785C49.1463 40.4472 48.8931 40.4944 48.5711 40.5202C48.4681 40.5287 48.3865 40.5159 48.3307 40.4772C48.2749 40.4429 48.232 40.3914 48.2062 40.327C48.1805 40.2626 48.1719 40.1896 48.1719 40.108C48.1719 40.0265 48.1805 39.9449 48.1976 39.8633C48.2105 39.7818 48.232 39.7002 48.2534 39.6272C48.2749 39.5543 48.2921 39.4942 48.3092 39.4469C48.3007 39.55 48.305 39.6358 48.3307 39.7045C48.3565 39.7732 48.3908 39.8247 48.4423 39.8591C48.4938 39.8934 48.5539 39.9192 48.6183 39.9277C48.687 39.9363 48.76 39.9406 48.8416 39.932C48.9188 39.9234 49.0004 39.9106 49.0863 39.8891C49.1678 39.8676 49.2494 39.8462 49.3267 39.8204C49.4039 39.7947 49.4769 39.7689 49.5413 39.7389C49.6057 39.7088 49.6615 39.683 49.7087 39.6616C49.6701 39.5371 49.64 39.4341 49.6057 39.3439C49.5756 39.258 49.5456 39.1808 49.5155 39.1121C49.4855 39.0477 49.4597 38.9876 49.4297 38.9404C49.4039 38.8932 49.3739 38.8459 49.3438 38.7987C49.3138 38.7515 49.2837 38.7043 49.2537 38.6571C49.2236 38.6098 49.1893 38.554 49.1549 38.4896C49.2107 38.4038 49.2623 38.305 49.3138 38.1934C49.361 38.0861 49.4125 37.9874 49.464 37.8972Z" fill="#253A7B"/>
<path d="M51.1284 36.5149C51.0512 36.5192 50.9782 36.5321 50.9052 36.5536C50.8322 36.575 50.7636 36.6051 50.6949 36.6351C50.6262 36.6652 50.5575 36.7038 50.4931 36.7424C50.4287 36.7811 50.3643 36.824 50.2999 36.8626C50.2956 36.8369 50.3042 36.8025 50.3214 36.7725C50.3386 36.7381 50.3643 36.7081 50.4029 36.6737C50.4373 36.6437 50.4802 36.6137 50.5317 36.5836C50.579 36.5578 50.6348 36.5364 50.6949 36.5235C50.6305 36.5149 50.5747 36.502 50.536 36.4892C50.4974 36.4763 50.4673 36.4634 50.4459 36.4462C50.4244 36.4291 50.4115 36.4119 50.4029 36.3904C50.3944 36.369 50.3944 36.3432 50.3944 36.3132C50.4115 36.2273 50.4416 36.1457 50.4888 36.0685C50.5317 35.9912 50.5833 35.9225 50.6391 35.8624C50.6949 35.8023 50.755 35.7551 50.8151 35.7165C50.8752 35.6821 50.9267 35.6606 50.9739 35.6606C50.9997 35.6606 51.0254 35.6692 51.0555 35.6907C51.0855 35.7122 51.1027 35.7465 51.1113 35.7894C51.0941 35.8195 51.0726 35.8495 51.0512 35.8796C51.0297 35.9053 51.0125 35.9397 50.9997 35.974C50.9739 35.944 50.9396 35.9268 50.9009 35.9268C50.8623 35.9268 50.8237 35.9311 50.7893 35.9483C50.755 35.9611 50.7206 35.9826 50.6949 36.0127C50.6691 36.0384 50.6562 36.0685 50.6562 36.1028C50.6562 36.1329 50.6691 36.1672 50.7034 36.1973C50.7335 36.2273 50.7893 36.253 50.8709 36.2702C50.9181 36.2788 50.9868 36.2745 51.0726 36.2573C51.1585 36.2402 51.2486 36.223 51.3431 36.2101L51.1284 36.5149ZM50.961 38.3351C50.9267 38.3351 50.8752 38.3136 50.8065 38.275C50.7421 38.2363 50.6734 38.1848 50.609 38.129C50.5446 38.0732 50.4888 38.0174 50.4416 37.9573C50.3944 37.8972 50.3729 37.85 50.3729 37.8114C50.3729 37.7899 50.3729 37.7598 50.3772 37.7212C50.3772 37.6826 50.3815 37.6396 50.3901 37.5924C50.3944 37.5452 50.403 37.498 50.4115 37.4508C50.4201 37.4035 50.4287 37.3563 50.4416 37.3177C50.4545 37.279 50.4673 37.2447 50.4845 37.2189C50.4974 37.1932 50.5146 37.1803 50.536 37.1803C50.6047 37.1803 50.682 37.2018 50.7636 37.249C50.8451 37.2962 50.9353 37.3606 51.0254 37.4379C51.1156 37.5194 51.21 37.6096 51.3044 37.7169C51.3989 37.8242 51.4933 37.9359 51.5835 38.0518C51.6736 38.1677 51.7638 38.2879 51.8496 38.4081C51.9355 38.5283 52.0128 38.6442 52.0814 38.7558C52.1501 38.8674 52.2145 38.9704 52.2661 39.0649C52.3176 39.1593 52.3562 39.2366 52.3863 39.301C52.4635 39.1164 52.5193 38.9533 52.558 38.803C52.5923 38.6571 52.6138 38.5068 52.6224 38.3608C52.6309 38.2149 52.6224 38.0603 52.6095 37.9015C52.5966 37.7427 52.5751 37.5581 52.5537 37.3563C52.5966 37.2919 52.6395 37.2275 52.6782 37.1674C52.7168 37.1073 52.7511 37.0558 52.7769 37.0086C52.8069 36.9614 52.8284 36.927 52.8413 36.897C52.8542 36.8712 52.8628 36.8541 52.8628 36.8541C52.9014 36.9142 52.9357 36.9657 52.9658 37.0129C52.9958 37.0601 53.0259 37.1073 53.0559 37.1631C53.0903 37.2189 53.1203 37.2705 53.1461 37.3177C53.1718 37.3649 53.1976 37.4078 53.2148 37.4422C53.2319 37.4765 53.2405 37.498 53.2405 37.5066C53.2405 37.5151 53.2319 37.5452 53.2105 37.5881C53.189 37.6311 53.1633 37.6783 53.1332 37.7255C53.1032 37.7727 53.0731 37.8156 53.0431 37.8543C53.013 37.8929 52.9915 37.9101 52.9744 37.9101C52.94 38.1548 52.9014 38.3566 52.867 38.5197C52.8327 38.6828 52.7984 38.8202 52.7597 38.9361C52.7211 39.052 52.6782 39.1507 52.6352 39.2323C52.5923 39.3182 52.5408 39.404 52.485 39.4942C52.5107 39.5714 52.5322 39.6358 52.5408 39.6959C52.5494 39.7517 52.558 39.8032 52.5622 39.8505C52.5622 39.8977 52.5622 39.9406 52.5622 39.9835C52.558 40.0265 52.558 40.0694 52.558 40.1209C52.558 40.2368 52.5365 40.3355 52.4893 40.4171C52.4421 40.4987 52.382 40.5674 52.3047 40.6189C52.2274 40.6704 52.1416 40.7133 52.0385 40.7434C51.9398 40.7734 51.8368 40.7992 51.7294 40.8121C51.6221 40.8249 51.5191 40.8335 51.4161 40.8378C51.313 40.8421 51.2186 40.8421 51.1327 40.8378C51.0469 40.8378 50.9739 40.8335 50.9138 40.8292C50.8537 40.8249 50.8108 40.8249 50.7936 40.8292C50.7936 40.782 50.7979 40.7348 50.8065 40.6876C50.8108 40.6446 50.8194 40.5974 50.8236 40.5545C50.8322 40.5116 50.8365 40.4643 50.8408 40.4171C50.8451 40.3699 50.8494 40.3227 50.8494 40.2712C50.9567 40.2153 51.0598 40.1638 51.1585 40.1209C51.2572 40.0737 51.356 40.0222 51.4547 39.9664C51.5534 39.9106 51.6565 39.8462 51.7638 39.7732C51.8711 39.7002 51.9827 39.6101 52.1072 39.4984C52.0213 39.3782 51.9398 39.2666 51.8668 39.1679C51.7938 39.0692 51.7209 38.9747 51.6479 38.8846C51.5749 38.7944 51.4933 38.7 51.4118 38.6012C51.3259 38.5068 51.2272 38.3952 51.1156 38.2793L50.961 38.3351ZM51.4461 40.2239C51.4676 40.2282 51.5105 40.2282 51.5663 40.2282C51.6221 40.2282 51.6865 40.2282 51.7552 40.2239C51.8239 40.2196 51.8969 40.2111 51.9741 40.2025C52.0514 40.1939 52.1201 40.1767 52.1845 40.1596C52.236 40.1424 52.2789 40.1209 52.3047 40.0994C52.3304 40.078 52.3433 40.0479 52.3433 40.0136C52.3433 39.9792 52.3304 39.9406 52.309 39.8934C52.2875 39.8462 52.2532 39.7947 52.2145 39.7303C52.09 39.829 51.9656 39.9191 51.8368 39.9964C51.708 40.0737 51.5792 40.151 51.4461 40.2239Z" fill="#253A7B"/>
<path d="M53.627 37.5277C53.6312 37.5191 53.6441 37.4891 53.6656 37.4462C53.6871 37.4032 53.7214 37.356 53.76 37.3002C53.7987 37.2444 53.8459 37.1886 53.8931 37.1328C53.9446 37.077 53.9961 37.0255 54.0562 36.9868L54.1936 39.3436C54.1936 39.4767 54.1893 39.6097 54.1764 39.7471C54.1636 39.8845 54.1421 40.0176 54.112 40.1506C54.082 40.2837 54.0477 40.4082 54.009 40.5284C53.9704 40.6486 53.9232 40.7602 53.8759 40.859L53.627 37.5277Z" fill="#253A7B"/>
<path d="M57.4303 39.6873C57.4303 39.6186 57.4389 39.5499 57.4603 39.4855C57.4818 39.4211 57.5161 39.3438 57.5676 39.2666C57.5977 39.3739 57.6406 39.464 57.6921 39.537C57.7437 39.61 57.7952 39.6744 57.851 39.7216C57.9068 39.7688 57.9626 39.8118 58.0184 39.8375C58.0742 39.8676 58.1214 39.889 58.1644 39.9062H58.3962V40.4943H58.1128C58.0399 40.6746 57.9712 40.8463 57.9068 41.0138C57.8424 41.1812 57.7694 41.34 57.6836 41.486C57.5977 41.6362 57.4947 41.7693 57.3788 41.8938C57.2586 42.0183 57.1126 42.1256 56.9323 42.2158C56.9109 42.2243 56.8679 42.2329 56.8035 42.2286C56.7391 42.2286 56.6619 42.2243 56.576 42.2115C56.4901 42.2029 56.3914 42.19 56.2927 42.1728C56.1896 42.1599 56.0866 42.1428 55.9879 42.1213C55.8891 42.1041 55.7947 42.087 55.7046 42.0655C55.6187 42.0483 55.5457 42.0312 55.4856 42.0183C55.4298 42.0054 55.3912 41.9925 55.3697 41.9839C55.3483 41.9754 55.3611 41.9711 55.3998 41.9754C55.6659 41.9882 55.9149 41.9796 56.1467 41.9496C56.3785 41.9195 56.5932 41.8509 56.7906 41.7478C56.9881 41.6448 57.1727 41.4946 57.3401 41.3014C57.5075 41.1082 57.6578 40.8549 57.7995 40.5458C57.6836 40.3484 57.5934 40.1809 57.5333 40.0436C57.4603 39.9148 57.4303 39.7946 57.4303 39.6873ZM57.4131 37.7297C57.4904 37.8113 57.5634 37.8843 57.6321 37.953C57.6964 38.0216 57.7694 38.0946 57.851 38.1676L57.4131 38.6012C57.3315 38.5239 57.2586 38.4509 57.1899 38.3865C57.1212 38.3221 57.0482 38.2492 56.9752 38.1676L57.4131 37.7297Z" fill="#253A7B"/>
<path d="M59.4828 39.9062V40.4901H58.2637V39.9062H59.4828Z" fill="#253A7B"/>
<path d="M61.7392 37.438L60.0478 38.0132C60.2539 38.1763 60.4384 38.3223 60.5973 38.4596C60.7561 38.5927 60.8935 38.7215 61.0094 38.8374C61.1253 38.9533 61.224 39.0649 61.3013 39.1637C61.3786 39.2624 61.443 39.3611 61.4902 39.4513C61.5374 39.5414 61.5718 39.6316 61.5889 39.7132C61.6104 39.799 61.619 39.8806 61.619 39.9664C61.619 40.151 61.5846 40.327 61.5203 40.4988H59.3652V39.9106H61.2154C61.1038 39.6745 60.9622 39.4685 60.799 39.2925C60.6316 39.1122 60.4342 38.9447 60.2023 38.7859C60.1809 38.8203 60.1594 38.8503 60.138 38.8632C60.1165 38.8761 60.1036 38.8889 60.0864 38.8889C60.0693 38.8932 60.0521 38.8846 60.0349 38.8761C60.0177 38.8632 59.9963 38.846 59.9705 38.8245C59.8975 38.7644 59.8417 38.7129 59.7988 38.67C59.7559 38.6271 59.7344 38.5927 59.7344 38.5713C59.7344 38.4854 59.743 38.3867 59.7602 38.2879C59.7774 38.1849 59.8031 38.0862 59.8374 37.9917C59.8718 37.8973 59.919 37.8114 59.9748 37.7342C60.0306 37.6569 60.1036 37.6054 60.1852 37.571C60.2968 37.5238 60.4256 37.4723 60.5715 37.4208C60.7175 37.3693 60.8677 37.3178 61.0223 37.2662C61.1768 37.2147 61.3314 37.1632 61.4859 37.116C61.6404 37.0688 61.7821 37.0215 61.9066 36.9829L61.7392 37.438Z" fill="#253A7B"/>
<path d="M63.4029 39.6875C63.4029 39.6189 63.4115 39.5502 63.433 39.4858C63.4544 39.4214 63.4888 39.3441 63.5403 39.2668C63.5704 39.3742 63.6133 39.4643 63.6648 39.5373C63.7163 39.6103 63.7678 39.6747 63.8236 39.7219C63.8794 39.7691 63.9353 39.812 63.9911 39.8378C64.0469 39.8679 64.0941 39.8893 64.137 39.9065H64.3688V40.4946H64.0855C64.0125 40.6749 63.9438 40.8466 63.8794 41.014C63.8151 41.1815 63.7421 41.3403 63.6562 41.4863C63.5704 41.6365 63.4673 41.7696 63.3514 41.8941C63.2312 42.0186 63.0853 42.1259 62.905 42.216C62.8835 42.2246 62.8406 42.2332 62.7762 42.2289C62.7118 42.2289 62.6345 42.2246 62.5487 42.2117C62.4628 42.2032 62.3641 42.1903 62.2653 42.1731C62.1623 42.1602 62.0593 42.143 61.9605 42.1216C61.8618 42.1044 61.7674 42.0872 61.6772 42.0658C61.5914 42.0486 61.5184 42.0314 61.4583 42.0186C61.4025 42.0057 61.3638 41.9928 61.3424 41.9842C61.3209 41.9756 61.3338 41.9713 61.3724 41.9756C61.6386 41.9885 61.8876 41.9799 62.1194 41.9499C62.3512 41.9198 62.5658 41.8511 62.7633 41.7481C62.9608 41.6451 63.1454 41.4948 63.3128 41.3017C63.4802 41.1085 63.6305 40.8552 63.7721 40.5461C63.6562 40.3486 63.5661 40.1812 63.506 40.0438C63.433 39.9151 63.4029 39.7949 63.4029 39.6875Z" fill="#253A7B"/>
<path d="M65.4536 39.9062V40.4901H64.2344V39.9062H65.4536Z" fill="#253A7B"/>
<path d="M66.518 39.9062V40.4901H65.2988V39.9062H66.518Z" fill="#253A7B"/>
<path d="M68.8918 39.7389C68.8918 39.7904 68.8789 39.8462 68.8574 39.9106C68.836 39.975 68.8059 40.0394 68.7673 40.1038C68.7329 40.1682 68.69 40.2283 68.6471 40.2884C68.6042 40.3485 68.5569 40.3957 68.514 40.4343L67.3807 39.9836C67.312 40.0651 67.239 40.1338 67.1575 40.1939C67.0759 40.254 66.9986 40.3055 66.9214 40.3442C66.8441 40.3828 66.7711 40.4171 66.7024 40.4386C66.6337 40.4601 66.5779 40.4772 66.5307 40.4858H66.3848V39.902H66.4964L66.6767 39.8977C66.6767 39.8977 66.6896 39.8934 66.7153 39.8891C66.7368 39.8848 66.7668 39.8762 66.8012 39.8676C66.8355 39.8591 66.8742 39.8462 66.9128 39.8333C66.9514 39.8204 66.9901 39.8033 67.0244 39.7861C67.0587 39.7689 67.0931 39.7518 67.1188 39.7303C67.1446 39.7131 67.1618 39.6916 67.1704 39.6702L67.1661 39.6745C67.1832 39.6273 67.2176 39.5672 67.2648 39.4856C67.312 39.4083 67.3721 39.3225 67.4365 39.2366C67.5009 39.1464 67.5782 39.0606 67.6554 38.9704C67.737 38.8803 67.8186 38.7987 67.9044 38.73C67.9903 38.6571 68.0762 38.6013 68.162 38.554C68.2479 38.5068 68.3294 38.4854 68.4067 38.4854C68.4668 38.4854 68.5183 38.5111 68.5655 38.5583C68.6085 38.6056 68.6471 38.6699 68.6814 38.7429C68.7115 38.8202 68.7415 38.9061 68.763 39.0005C68.7845 39.0949 68.8059 39.1894 68.8188 39.2795C68.836 39.3697 68.8489 39.4598 68.8617 39.5371C68.8746 39.6273 68.8832 39.6916 68.8918 39.7389ZM68.4539 39.7818C68.4453 39.6916 68.4324 39.6058 68.4196 39.5156C68.4067 39.4298 68.3809 39.3525 68.3509 39.2838C68.3208 39.2151 68.2822 39.1593 68.2307 39.1164C68.1835 39.0735 68.1191 39.052 68.0461 39.052C68.0118 39.052 67.9731 39.0606 67.9345 39.0821C67.8959 39.1035 67.8572 39.1293 67.8229 39.1636C67.7885 39.198 67.7499 39.2366 67.7156 39.2795C67.6812 39.3225 67.6512 39.3697 67.6211 39.4169L68.4539 39.7818Z" fill="#253A7B"/>
<path d="M40.5757 1.38207V0.0212402C35.669 0.390425 30.9812 2.33938 26.3535 4.70903C31.5994 2.97042 36.6005 1.53661 40.5757 1.38207Z" fill="#253A7B"/>
<path d="M38.4245 2.82007V4.40841C31.8135 4.80765 26.1255 7.11292 21.6953 10.4828C22.9918 7.22453 26.997 4.50716 38.4245 2.82007Z" fill="#253A7B"/>
<path d="M36.4086 5.90649L36.6275 7.64939C23.7146 10.7746 19.7953 13.6379 27.6083 16.0677C13.6565 13.9985 24.6419 8.00999 36.4086 5.90649Z" fill="#253A7B"/>
<path d="M21.5176 25.8167V27.1775C26.4243 26.8083 31.1121 24.8594 35.7398 22.4897C30.4982 24.2326 25.497 25.6665 21.5176 25.8167Z" fill="#253A7B"/>
<path d="M23.668 24.3829V22.7946C30.2789 22.3954 35.967 20.0901 40.3972 16.7202C39.105 19.9742 35.0955 22.6959 23.668 24.3829Z" fill="#253A7B"/>
<path d="M25.6857 21.2964L25.4668 19.5535C38.3797 16.4283 42.299 13.565 34.4861 11.1353C48.4378 13.2044 37.4567 19.1929 25.6857 21.2964Z" fill="#253A7B"/>
<path d="M19.2569 15.5787C20.2443 16.828 20.7422 18.2618 20.7422 19.8759C20.7422 21.3354 20.3859 22.6147 19.669 23.7223C18.9521 24.8298 17.9176 25.6927 16.5653 26.3194C15.2131 26.9462 13.6118 27.2553 11.7616 27.2553H0.0078125V0H11.2551C13.101 0 14.6979 0.300498 16.0373 0.897203C17.3767 1.4982 18.3941 2.33102 19.0809 3.39564C19.7721 4.46456 20.1155 5.67514 20.1155 7.02738C20.1155 8.61574 19.6905 9.94223 18.8448 11.0111C17.9991 12.0801 16.8744 12.8356 15.4664 13.2778C17.0032 13.5611 18.2696 14.3295 19.2569 15.5787ZM5.47261 11.243H10.4695C11.7702 11.243 12.7747 10.9511 13.4745 10.3629C14.1785 9.77911 14.5305 8.9377 14.5305 7.84302C14.5305 6.74835 14.1785 5.90267 13.4745 5.30596C12.7704 4.70926 11.7702 4.40875 10.4695 4.40875H5.47261V11.243ZM14.0841 21.8678C14.8267 21.241 15.1959 20.3567 15.1959 19.2105C15.1959 18.0385 14.8052 17.1199 14.0239 16.4588C13.2427 15.7934 12.1909 15.4628 10.8601 15.4628H5.47261V22.8036H10.9803C12.3068 22.8036 13.3414 22.4902 14.0841 21.8678Z" fill="#253A7B"/>
<path d="M44.7925 6.59384C45.973 4.52468 47.5871 2.91057 49.6305 1.75579C51.6739 0.601016 53.9663 0.0214844 56.5076 0.0214844C59.4783 0.0214844 62.0798 0.781321 64.3163 2.30528C66.5486 3.82924 68.1112 5.93703 68.9998 8.62864H62.8653C62.2558 7.35796 61.3972 6.40494 60.2939 5.7696C59.1907 5.13426 57.9114 4.81659 56.4647 4.81659C54.915 4.81659 53.537 5.17719 52.3307 5.90268C51.1244 6.62817 50.1843 7.64988 49.5103 8.96778C48.8363 10.29 48.5015 11.8397 48.5015 13.6169C48.5015 15.3684 48.8363 16.9138 49.5103 18.2446C50.1843 19.5797 51.1244 20.6057 52.3307 21.3312C53.537 22.0567 54.915 22.4173 56.4647 22.4173C57.9114 22.4173 59.1864 22.0953 60.2939 21.4471C61.3972 20.7988 62.2558 19.8416 62.8653 18.5709H68.9998C68.1112 21.2882 66.5572 23.4046 64.3335 24.9114C62.1098 26.4225 59.4998 27.178 56.5076 27.178C53.9663 27.178 51.6739 26.6028 49.6305 25.4437C47.5871 24.2889 45.973 22.6834 44.7925 20.6229C43.6119 18.5666 43.0195 16.2313 43.0195 13.6126C43.0238 11.0069 43.6119 8.66299 44.7925 6.59384Z" fill="#253A7B"/>
<path d="M2.12495 32.66C2.23227 32.7974 2.28808 32.9562 2.28808 33.1322C2.28808 33.2953 2.24945 33.4327 2.16788 33.5572C2.08632 33.6817 1.97471 33.7761 1.82446 33.8448C1.67421 33.9135 1.4982 33.9479 1.29643 33.9479H0V30.9429H1.24063C1.44668 30.9429 1.6184 30.9772 1.76865 31.0416C1.91461 31.106 2.03051 31.2004 2.10349 31.3163C2.17647 31.4323 2.21939 31.5653 2.21939 31.7156C2.21939 31.8916 2.17218 32.0375 2.07774 32.1534C1.98329 32.2694 1.8588 32.3552 1.70426 32.4024C1.87597 32.4368 2.01763 32.5226 2.12495 32.66ZM0.60528 32.1792H1.15476C1.29643 32.1792 1.40805 32.1449 1.48532 32.0805C1.56259 32.0161 1.60122 31.9216 1.60122 31.8014C1.60122 31.6812 1.56259 31.5868 1.48532 31.5224C1.40805 31.458 1.29643 31.4237 1.15476 31.4237H0.60528V32.1792ZM1.55401 33.3512C1.63557 33.2825 1.67849 33.1837 1.67849 33.0592C1.67849 32.9305 1.63557 32.8274 1.54971 32.7545C1.46385 32.6815 1.34795 32.6428 1.20199 32.6428H0.609577V33.4542H1.21917C1.36083 33.4542 1.47244 33.4198 1.55401 33.3512Z" fill="#253A7B"/>
<path d="M2.75924 32.1022C2.85368 31.9176 2.98676 31.7717 3.14989 31.673C3.31301 31.5742 3.4976 31.5227 3.70365 31.5227C3.87966 31.5227 4.03851 31.557 4.17159 31.63C4.30466 31.703 4.41199 31.7932 4.49355 31.9005V31.5613H5.09883V33.9482H4.49355V33.6004C4.41628 33.7121 4.30896 33.8065 4.17159 33.8795C4.03421 33.9525 3.87967 33.9911 3.69937 33.9911C3.49761 33.9911 3.31731 33.9396 3.14989 33.8366C2.98676 33.7335 2.85368 33.5876 2.75924 33.3987C2.66479 33.2098 2.61328 32.9952 2.61328 32.7505C2.61757 32.5058 2.66479 32.2911 2.75924 32.1022ZM4.40769 32.377C4.35188 32.274 4.27461 32.1924 4.17587 32.1366C4.07713 32.0808 3.97411 32.0507 3.8625 32.0507C3.75089 32.0507 3.64786 32.0765 3.55342 32.1323C3.45897 32.1881 3.3817 32.2654 3.3216 32.3727C3.2615 32.4757 3.23145 32.6002 3.23145 32.7462C3.23145 32.8878 3.2615 33.0166 3.3216 33.1239C3.3817 33.2313 3.45897 33.3128 3.55342 33.3729C3.64786 33.433 3.75089 33.4588 3.8625 33.4588C3.97411 33.4588 4.07713 33.4287 4.17587 33.3729C4.27461 33.3171 4.35188 33.2356 4.40769 33.1325C4.46349 33.0295 4.49355 32.9007 4.49355 32.7548C4.49355 32.6088 4.46349 32.48 4.40769 32.377Z" fill="#253A7B"/>
<path d="M6.2924 30.7583V33.9436H5.69141V30.7583H6.2924Z" fill="#253A7B"/>
<path d="M6.87642 32.1022C6.97087 31.9176 7.10395 31.7717 7.26707 31.673C7.4302 31.5742 7.6148 31.5227 7.82085 31.5227C7.99686 31.5227 8.1557 31.557 8.28877 31.63C8.42185 31.703 8.52917 31.7932 8.61074 31.9005V31.5613H9.21603V33.9482H8.61074V33.6004C8.53347 33.7121 8.42614 33.8065 8.28877 33.8795C8.1514 33.9525 7.99686 33.9911 7.81656 33.9911C7.61479 33.9911 7.4345 33.9396 7.26707 33.8366C7.10395 33.7335 6.97087 33.5876 6.87642 33.3987C6.78198 33.2098 6.73047 32.9952 6.73047 32.7505C6.73476 32.5058 6.78198 32.2911 6.87642 32.1022ZM8.52487 32.377C8.46907 32.274 8.39179 32.1924 8.29306 32.1366C8.19432 32.0808 8.0913 32.0507 7.97969 32.0507C7.86807 32.0507 7.76505 32.0765 7.6706 32.1323C7.57616 32.1881 7.49889 32.2654 7.43879 32.3727C7.37869 32.4757 7.34864 32.6002 7.34864 32.7462C7.34864 32.8878 7.37869 33.0166 7.43879 33.1239C7.49889 33.2313 7.57616 33.3128 7.6706 33.3729C7.76505 33.433 7.86807 33.4588 7.97969 33.4588C8.0913 33.4588 8.19432 33.4287 8.29306 33.3729C8.39179 33.3171 8.46907 33.2356 8.52487 33.1325C8.58068 33.0295 8.61074 32.9007 8.61074 32.7548C8.61074 32.6088 8.58497 32.48 8.52487 32.377Z" fill="#253A7B"/>
<path d="M11.8235 31.7975C11.9995 31.9778 12.0854 32.2267 12.0854 32.5487V33.9482H11.4844V32.6303C11.4844 32.4414 11.4371 32.2954 11.3427 32.1924C11.2483 32.0894 11.1195 32.0379 10.9564 32.0379C10.7889 32.0379 10.6601 32.0894 10.5614 32.1924C10.467 32.2954 10.4154 32.4414 10.4154 32.6303V33.9482H9.81445V31.5613H10.4154V31.8575C10.497 31.7545 10.6 31.673 10.7245 31.6129C10.849 31.5528 10.9864 31.5227 11.1366 31.5227C11.4157 31.527 11.6475 31.6172 11.8235 31.7975Z" fill="#253A7B"/>
<path d="M12.6506 32.1065C12.7494 31.9219 12.891 31.776 13.067 31.6773C13.2473 31.5742 13.4491 31.5227 13.6766 31.5227C13.9728 31.5227 14.2175 31.5957 14.4107 31.7459C14.6039 31.8919 14.7327 32.1022 14.8013 32.3684H14.1488C14.1145 32.2654 14.0544 32.1838 13.9728 32.1237C13.8913 32.0636 13.7882 32.0336 13.668 32.0336C13.4963 32.0336 13.359 32.0979 13.2602 32.2224C13.1615 32.3469 13.11 32.5229 13.11 32.7548C13.11 32.9823 13.1615 33.1583 13.2602 33.2828C13.359 33.4073 13.4963 33.4717 13.668 33.4717C13.9127 33.4717 14.0716 33.3643 14.1445 33.1454H14.7971C14.7327 33.403 14.5996 33.609 14.4064 33.7593C14.2089 33.9095 13.9685 33.9868 13.6723 33.9868C13.4405 33.9868 13.2388 33.9353 13.0628 33.8323C12.8867 33.7292 12.7451 33.5876 12.6463 33.403C12.5476 33.2184 12.4961 33.0037 12.4961 32.7548C12.4961 32.5058 12.5519 32.2911 12.6506 32.1065Z" fill="#253A7B"/>
<path d="M17.4486 32.9347H15.7057C15.7186 33.1064 15.7787 33.2437 15.886 33.3382C15.9933 33.4369 16.1221 33.4841 16.2766 33.4841C16.4999 33.4841 16.6587 33.3897 16.7531 33.1965H17.4056C17.337 33.4283 17.2039 33.6172 17.0107 33.7632C16.8132 33.9091 16.5771 33.9864 16.2895 33.9864C16.0577 33.9864 15.8516 33.9349 15.6713 33.8319C15.491 33.7288 15.3451 33.5872 15.2463 33.3983C15.1433 33.2137 15.0918 32.9948 15.0918 32.7544C15.0918 32.5054 15.1433 32.2907 15.242 32.1061C15.3408 31.9216 15.4825 31.7756 15.6628 31.6769C15.8431 31.5781 16.0534 31.5266 16.2852 31.5266C16.5127 31.5266 16.7145 31.5738 16.8948 31.6726C17.0751 31.7713 17.2125 31.9087 17.3112 32.089C17.4099 32.2693 17.4615 32.4753 17.4615 32.7071C17.4657 32.7887 17.4615 32.866 17.4486 32.9347ZM16.8433 32.5311C16.839 32.3766 16.7832 32.2521 16.6759 32.1577C16.5685 32.0632 16.4312 32.016 16.2766 32.016C16.1264 32.016 16.0019 32.0632 15.8989 32.1534C15.7958 32.2435 15.7357 32.368 15.71 32.5311H16.8433Z" fill="#253A7B"/>
<path d="M17.8979 32.1021C17.9924 31.9175 18.1254 31.7715 18.2929 31.6728C18.4603 31.574 18.6449 31.5225 18.8466 31.5225C19.0012 31.5225 19.1514 31.5569 19.2888 31.6256C19.4262 31.6942 19.5421 31.7844 19.6236 31.896V30.7627H20.2332V33.948H19.6236V33.596C19.5507 33.7119 19.4433 33.8063 19.3103 33.8793C19.1772 33.9523 19.0183 33.9866 18.8423 33.9866C18.6406 33.9866 18.456 33.9351 18.2929 33.8321C18.1254 33.729 17.9966 33.5831 17.8979 33.3942C17.7992 33.2053 17.752 32.9907 17.752 32.746C17.752 32.5056 17.7992 32.2909 17.8979 32.1021ZM19.5464 32.3768C19.4906 32.2738 19.4133 32.1922 19.3146 32.1364C19.2158 32.0806 19.1128 32.0505 19.0012 32.0505C18.8896 32.0505 18.7865 32.0763 18.6921 32.1321C18.5976 32.1879 18.5204 32.2652 18.4603 32.3725C18.4002 32.4755 18.3701 32.6 18.3701 32.746C18.3701 32.8877 18.4002 33.0164 18.4603 33.1238C18.5204 33.2311 18.5976 33.3126 18.6921 33.3727C18.7865 33.4328 18.8896 33.4586 19.0012 33.4586C19.1128 33.4586 19.2158 33.4285 19.3146 33.3727C19.4133 33.3169 19.4906 33.2354 19.5464 33.1323C19.6022 33.0293 19.6322 32.9005 19.6322 32.7546C19.6322 32.6086 19.6022 32.4798 19.5464 32.3768Z" fill="#253A7B"/>
<path d="M22.3229 33.8708C22.1555 33.7979 22.0224 33.6948 21.9237 33.5618C21.8249 33.4287 21.7777 33.2656 21.7734 33.0853H22.4174C22.4259 33.2097 22.4689 33.3042 22.5504 33.3772C22.6277 33.4501 22.7393 33.4845 22.8767 33.4845C23.0184 33.4845 23.13 33.4501 23.2072 33.3815C23.2888 33.3128 23.3274 33.2269 23.3274 33.1153C23.3274 33.0252 23.3017 32.9522 23.2459 32.8964C23.1901 32.8406 23.1214 32.7933 23.0398 32.759C22.9583 32.7246 22.8466 32.6903 22.7007 32.6474C22.5032 32.5916 22.3487 32.5315 22.2242 32.4757C22.104 32.4199 21.9967 32.334 21.9108 32.2224C21.8249 32.1108 21.7777 31.9562 21.7777 31.7673C21.7777 31.587 21.8206 31.4325 21.9108 31.3037C22.0009 31.1706 22.1254 31.0719 22.2843 30.9989C22.4431 30.9302 22.6277 30.8916 22.8338 30.8916C23.1428 30.8916 23.3961 30.9689 23.5893 31.1191C23.7825 31.2694 23.8898 31.4797 23.9113 31.7502H23.2459C23.2416 31.6471 23.1944 31.5613 23.1128 31.4926C23.0312 31.4239 22.9239 31.3896 22.7865 31.3896C22.6706 31.3896 22.5762 31.4196 22.5032 31.4797C22.4345 31.5398 22.3959 31.6257 22.3959 31.7416C22.3959 31.8232 22.4217 31.8875 22.4775 31.9434C22.529 31.9949 22.5977 32.0378 22.6749 32.0721C22.7522 32.1065 22.8638 32.1451 23.0098 32.188C23.2029 32.2439 23.3661 32.304 23.4863 32.3598C23.6065 32.4156 23.7181 32.5014 23.8039 32.6173C23.8941 32.7332 23.937 32.8835 23.937 33.0681C23.937 33.2269 23.8941 33.3772 23.8125 33.5145C23.731 33.6519 23.6065 33.7635 23.4476 33.8451C23.2888 33.9266 23.0956 33.9696 22.8767 33.9696C22.6792 33.9782 22.4903 33.9395 22.3229 33.8708Z" fill="#253A7B"/>
<path d="M24.469 32.1065C24.5677 31.9219 24.7094 31.776 24.8854 31.6773C25.0657 31.5742 25.2675 31.5227 25.495 31.5227C25.7912 31.5227 26.0359 31.5957 26.2291 31.7459C26.4222 31.8919 26.551 32.1022 26.6197 32.3684H25.9672C25.9329 32.2654 25.8728 32.1838 25.7912 32.1237C25.7096 32.0636 25.6066 32.0336 25.4864 32.0336C25.3147 32.0336 25.1773 32.0979 25.0786 32.2224C24.9798 32.3469 24.9283 32.5229 24.9283 32.7548C24.9283 32.9823 24.9798 33.1583 25.0786 33.2828C25.1773 33.4073 25.3147 33.4717 25.4864 33.4717C25.7311 33.4717 25.8899 33.3643 25.9629 33.1454H26.6154C26.551 33.403 26.418 33.609 26.2248 33.7593C26.0273 33.9095 25.7869 33.9868 25.4907 33.9868C25.2589 33.9868 25.0571 33.9353 24.8811 33.8323C24.7051 33.7292 24.5634 33.5876 24.4647 33.403C24.366 33.2184 24.3145 33.0037 24.3145 32.7548C24.3145 32.5058 24.3703 32.2911 24.469 32.1065Z" fill="#253A7B"/>
<path d="M27.5084 33.8323C27.3238 33.7292 27.1822 33.5876 27.0748 33.3987C26.9718 33.2141 26.916 32.9952 26.916 32.7548C26.916 32.5144 26.9675 32.2954 27.0791 32.1108C27.1908 31.9262 27.3324 31.7803 27.5213 31.6773C27.7102 31.5742 27.9162 31.5227 28.1481 31.5227C28.3756 31.5227 28.5859 31.5742 28.7705 31.6773C28.9551 31.7803 29.1054 31.922 29.2127 32.1108C29.32 32.2997 29.3758 32.5144 29.3758 32.7548C29.3758 32.9952 29.32 33.2141 29.2084 33.3987C29.0968 33.5876 28.9465 33.7292 28.7619 33.8323C28.5731 33.9353 28.3627 33.9868 28.1309 33.9868C27.8991 33.9868 27.6887 33.9353 27.5084 33.8323ZM28.4357 33.3815C28.5301 33.33 28.6074 33.2484 28.6675 33.1411C28.7276 33.0338 28.7534 32.905 28.7534 32.7548C28.7534 32.5272 28.6933 32.3555 28.5731 32.231C28.4529 32.1065 28.3069 32.0464 28.1352 32.0464C27.9635 32.0464 27.8175 32.1065 27.7016 32.231C27.5857 32.3512 27.5256 32.5272 27.5256 32.7548C27.5256 32.9823 27.5814 33.154 27.6973 33.2785C27.8089 33.403 27.9549 33.4631 28.1266 33.4631C28.2382 33.4588 28.337 33.433 28.4357 33.3815Z" fill="#253A7B"/>
<path d="M30.7241 31.6339C30.8486 31.561 30.9903 31.5266 31.1534 31.5266V32.1577H30.9946C30.8057 32.1577 30.664 32.2006 30.5653 32.2907C30.4666 32.3809 30.4194 32.5354 30.4194 32.7544V33.9435H29.8184V31.5567H30.4194V31.9258C30.4966 31.8056 30.5954 31.7069 30.7241 31.6339Z" fill="#253A7B"/>
<path d="M33.7552 32.9347H32.0123C32.0252 33.1064 32.0853 33.2437 32.1926 33.3382C32.2999 33.4369 32.4287 33.4841 32.5833 33.4841C32.8065 33.4841 32.9653 33.3897 33.0598 33.1965H33.7123C33.6436 33.4283 33.5105 33.6172 33.3173 33.7632C33.1199 33.9091 32.8838 33.9864 32.5961 33.9864C32.3643 33.9864 32.1583 33.9349 31.978 33.8319C31.7977 33.7288 31.6517 33.5872 31.553 33.3983C31.45 33.2137 31.3984 32.9948 31.3984 32.7544C31.3984 32.5054 31.45 32.2907 31.5487 32.1061C31.6474 31.9216 31.7891 31.7756 31.9694 31.6769C32.1497 31.5781 32.36 31.5266 32.5918 31.5266C32.8194 31.5266 33.0211 31.5738 33.2014 31.6726C33.3817 31.7713 33.5191 31.9087 33.6178 32.089C33.7166 32.2693 33.7681 32.4753 33.7681 32.7071C33.7724 32.7887 33.7681 32.866 33.7552 32.9347ZM33.1499 32.5311C33.1456 32.3766 33.0898 32.2521 32.9825 32.1577C32.8752 32.0632 32.7378 32.016 32.5833 32.016C32.433 32.016 32.3085 32.0632 32.2055 32.1534C32.1025 32.2435 32.0424 32.368 32.0166 32.5311H33.1499Z" fill="#253A7B"/>
<path d="M37.2846 30.9387V31.4238H36.4819V33.9437H35.8809V31.4238H35.0781V30.9387H37.2846Z" fill="#253A7B"/>
<path d="M38.6324 31.6339C38.7569 31.561 38.8985 31.5266 39.0616 31.5266V32.1577H38.9028C38.7139 32.1577 38.5723 32.2006 38.4735 32.2907C38.3791 32.3809 38.3276 32.5354 38.3276 32.7544V33.9435H37.7266V31.5567H38.3276V31.9258C38.4048 31.8056 38.5079 31.7069 38.6324 31.6339Z" fill="#253A7B"/>
<path d="M39.4526 32.1022C39.547 31.9176 39.6801 31.7717 39.8432 31.673C40.0064 31.5742 40.191 31.5227 40.397 31.5227C40.5773 31.5227 40.7319 31.557 40.8649 31.63C40.998 31.703 41.1053 31.7932 41.1869 31.9005V31.5613H41.7965V33.9482H41.1869V33.6004C41.1096 33.7121 41.0023 33.8065 40.8649 33.8795C40.7276 33.9525 40.573 33.9911 40.3927 33.9911C40.191 33.9911 40.0107 33.9396 39.8432 33.8366C39.6801 33.7335 39.547 33.5876 39.4526 33.3987C39.3582 33.2098 39.3066 32.9952 39.3066 32.7505C39.3109 32.5058 39.3582 32.2911 39.4526 32.1022ZM41.101 32.377C41.0452 32.274 40.968 32.1924 40.8692 32.1366C40.7705 32.0808 40.6675 32.0507 40.5559 32.0507C40.4442 32.0507 40.3412 32.0765 40.2468 32.1323C40.1523 32.1881 40.0751 32.2654 40.015 32.3727C39.9549 32.4757 39.9248 32.6002 39.9248 32.7462C39.9248 32.8878 39.9549 33.0166 40.015 33.1239C40.0751 33.2313 40.1523 33.3128 40.2468 33.3729C40.3412 33.4287 40.4442 33.4588 40.5559 33.4588C40.6675 33.4588 40.7705 33.4287 40.8692 33.3729C40.968 33.3171 41.0452 33.2356 41.101 33.1325C41.1569 33.0295 41.1869 32.9007 41.1869 32.7548C41.1869 32.6088 41.1569 32.48 41.101 32.377Z" fill="#253A7B"/>
<path d="M42.4276 31.1748C42.3589 31.1061 42.3203 31.0245 42.3203 30.9215C42.3203 30.8185 42.3547 30.7369 42.4276 30.6682C42.4963 30.5995 42.5865 30.5652 42.6938 30.5652C42.8011 30.5652 42.887 30.5995 42.9599 30.6682C43.0329 30.7369 43.0673 30.8185 43.0673 30.9215C43.0673 31.0245 43.0329 31.1061 42.9599 31.1748C42.887 31.2434 42.8011 31.2778 42.6938 31.2778C42.5822 31.2778 42.4963 31.2434 42.4276 31.1748ZM42.9857 31.5611V33.9479H42.3847V31.5611H42.9857Z" fill="#253A7B"/>
<path d="M45.5895 31.7975C45.7655 31.9778 45.8514 32.2267 45.8514 32.5487V33.9482H45.2461V32.6303C45.2461 32.4414 45.1989 32.2954 45.1044 32.1924C45.01 32.0894 44.8812 32.0379 44.7181 32.0379C44.5506 32.0379 44.4219 32.0894 44.3231 32.1924C44.2287 32.2954 44.1772 32.4414 44.1772 32.6303V33.9482H43.5762V31.5613H44.1772V31.8575C44.2587 31.7545 44.3618 31.673 44.4863 31.6129C44.6107 31.5528 44.7481 31.5227 44.8984 31.5227C45.186 31.527 45.4178 31.6172 45.5895 31.7975Z" fill="#253A7B"/>
<path d="M46.4686 31.1748C46.4 31.1061 46.3613 31.0245 46.3613 30.9215C46.3613 30.8185 46.3957 30.7369 46.4686 30.6682C46.5373 30.5995 46.6275 30.5652 46.7348 30.5652C46.8421 30.5652 46.928 30.5995 47.001 30.6682C47.0739 30.7369 47.1083 30.8185 47.1083 30.9215C47.1083 31.0245 47.0739 31.1061 47.001 31.1748C46.928 31.2434 46.8421 31.2778 46.7348 31.2778C46.6275 31.2778 46.5373 31.2434 46.4686 31.1748ZM47.0267 31.5611V33.9479H46.4257V31.5611H47.0267Z" fill="#253A7B"/>
<path d="M49.6344 31.7975C49.8104 31.9778 49.8963 32.2267 49.8963 32.5487V33.9482H49.291V32.6303C49.291 32.4414 49.2438 32.2954 49.1493 32.1924C49.0549 32.0894 48.9261 32.0379 48.763 32.0379C48.5956 32.0379 48.4668 32.0894 48.368 32.1924C48.2736 32.2954 48.2221 32.4414 48.2221 32.6303V33.9482H47.6211V31.5613H48.2221V31.8575C48.3037 31.7545 48.4067 31.673 48.5312 31.6129C48.6557 31.5528 48.793 31.5227 48.9433 31.5227C49.2309 31.527 49.4627 31.6172 49.6344 31.7975Z" fill="#253A7B"/>
<path d="M51.8767 31.6257C52.0097 31.6944 52.1171 31.7888 52.1943 31.9004V31.5613H52.8039V33.9653C52.8039 34.1842 52.761 34.3817 52.6708 34.5577C52.5807 34.7294 52.4476 34.8711 52.2716 34.9698C52.0913 35.0729 51.8767 35.1244 51.6277 35.1244C51.2885 35.1244 51.0095 35.0471 50.7949 34.8883C50.5802 34.7294 50.4557 34.5148 50.4257 34.2443H51.0224C51.0524 34.3517 51.1211 34.4418 51.2284 34.5062C51.3358 34.5706 51.4603 34.6049 51.6105 34.6049C51.7865 34.6049 51.9282 34.5534 52.0355 34.4461C52.1428 34.3431 52.1986 34.1842 52.1986 33.9696V33.6004C52.1214 33.712 52.014 33.8065 51.8767 33.8795C51.7393 33.9524 51.5848 33.9911 51.4087 33.9911C51.207 33.9911 51.0224 33.9396 50.8593 33.8365C50.6918 33.7335 50.563 33.5875 50.4643 33.3987C50.3699 33.2098 50.3184 32.9951 50.3184 32.7504C50.3184 32.51 50.3656 32.2954 50.4643 32.1065C50.5588 31.9219 50.6918 31.776 50.855 31.6772C51.0181 31.5785 51.2027 31.527 51.4087 31.527C51.5848 31.5227 51.7436 31.557 51.8767 31.6257ZM52.1085 32.377C52.0527 32.2739 51.9754 32.1924 51.8767 32.1366C51.7779 32.0808 51.6749 32.0507 51.5633 32.0507C51.4517 32.0507 51.3486 32.0765 51.2542 32.1323C51.1598 32.1881 51.0825 32.2653 51.0224 32.3727C50.9623 32.4757 50.9322 32.6002 50.9322 32.7461C50.9322 32.8878 50.9623 33.0166 51.0224 33.1239C51.0825 33.2312 51.1598 33.3128 51.2542 33.3729C51.3486 33.4287 51.4517 33.4588 51.5633 33.4588C51.6749 33.4588 51.7779 33.4287 51.8767 33.3729C51.9754 33.3171 52.0527 33.2355 52.1085 33.1325C52.1643 33.0295 52.1943 32.9007 52.1943 32.7547C52.1943 32.6088 52.1686 32.48 52.1085 32.377Z" fill="#253A7B"/>
<path d="M54.4713 31.6426C54.6044 31.4107 54.789 31.2262 55.0165 31.0974C55.2483 30.9686 55.5059 30.8999 55.7935 30.8999C56.1283 30.8999 56.4245 30.9858 56.6778 31.1575C56.9311 31.3292 57.1071 31.5696 57.2058 31.8744H56.5104C56.4417 31.7327 56.343 31.6254 56.2185 31.5524C56.094 31.4794 55.948 31.4451 55.7849 31.4451C55.6089 31.4451 55.4544 31.488 55.317 31.5696C55.1796 31.6511 55.0723 31.7671 54.9993 31.9173C54.922 32.0676 54.8834 32.2436 54.8834 32.441C54.8834 32.6385 54.922 32.8145 54.9993 32.9648C55.0766 33.115 55.1796 33.2309 55.317 33.3125C55.4544 33.394 55.6089 33.437 55.7849 33.437C55.948 33.437 56.094 33.4026 56.2185 33.3254C56.343 33.2524 56.4417 33.1451 56.5104 32.9991H57.2058C57.1071 33.3082 56.9311 33.5443 56.6778 33.716C56.4288 33.8877 56.1326 33.9736 55.7935 33.9736C55.5059 33.9736 55.2483 33.9092 55.0165 33.7761C54.7847 33.6473 54.6044 33.4627 54.4713 33.2309C54.3382 32.9991 54.2695 32.7329 54.2695 32.4367C54.2695 32.1448 54.3382 31.8787 54.4713 31.6426Z" fill="#253A7B"/>
<path d="M59.9232 32.9347H58.1803C58.1932 33.1064 58.2533 33.2437 58.3606 33.3382C58.4679 33.4369 58.5967 33.4841 58.7512 33.4841C58.9745 33.4841 59.1333 33.3897 59.2277 33.1965H59.8803C59.8116 33.4283 59.6785 33.6172 59.4853 33.7632C59.2878 33.9091 59.0517 33.9864 58.7641 33.9864C58.5323 33.9864 58.3262 33.9349 58.1459 33.8319C57.9656 33.7288 57.8197 33.5872 57.721 33.3983C57.6179 33.2137 57.5664 32.9948 57.5664 32.7544C57.5664 32.5054 57.6179 32.2907 57.7167 32.1061C57.8154 31.9216 57.9571 31.7756 58.1374 31.6769C58.3177 31.5781 58.528 31.5266 58.7641 31.5266C58.9916 31.5266 59.1934 31.5738 59.3737 31.6726C59.554 31.7713 59.6914 31.9087 59.7901 32.089C59.8888 32.2693 59.9403 32.4753 59.9403 32.7071C59.9403 32.7887 59.9361 32.866 59.9232 32.9347ZM59.3179 32.5311C59.3136 32.3766 59.2578 32.2521 59.1505 32.1577C59.0431 32.0632 58.9058 32.016 58.7512 32.016C58.601 32.016 58.4765 32.0632 58.3735 32.1534C58.2704 32.2435 58.2103 32.368 58.1846 32.5311H59.3179Z" fill="#253A7B"/>
<path d="M62.3923 31.7975C62.5683 31.9778 62.6541 32.2267 62.6541 32.5487V33.9482H62.0488V32.6303C62.0488 32.4414 62.0016 32.2954 61.9072 32.1924C61.8127 32.0894 61.6839 32.0379 61.5208 32.0379C61.3534 32.0379 61.2246 32.0894 61.1259 32.1924C61.0314 32.2954 60.9799 32.4414 60.9799 32.6303V33.9482H60.3789V31.5613H60.9799V31.8575C61.0615 31.7545 61.1645 31.673 61.289 31.6129C61.4135 31.5528 61.5508 31.5227 61.7011 31.5227C61.9887 31.527 62.2162 31.6172 62.3923 31.7975Z" fill="#253A7B"/>
<path d="M63.9281 32.0547V33.2095C63.9281 33.291 63.9452 33.3468 63.9839 33.3855C64.0225 33.4198 64.0869 33.4413 64.1813 33.4413H64.4604V33.9479H64.0826C63.5761 33.9479 63.3185 33.6989 63.3185 33.2052V32.0547H63.0352V31.561H63.3185V30.9729H63.9281V31.561H64.4604V32.0547H63.9281Z" fill="#253A7B"/>
<path d="M67.1013 32.9347H65.3584C65.3713 33.1064 65.4314 33.2437 65.5387 33.3382C65.646 33.4369 65.7748 33.4841 65.9293 33.4841C66.1526 33.4841 66.3114 33.3897 66.4058 33.1965H67.0541C66.9854 33.4283 66.8523 33.6172 66.6591 33.7632C66.4617 33.9091 66.2255 33.9864 65.9379 33.9864C65.7061 33.9864 65.5044 33.9349 65.3198 33.8319C65.1352 33.7288 64.9935 33.5872 64.8948 33.3983C64.7917 33.2137 64.7402 32.9948 64.7402 32.7544C64.7402 32.5054 64.7917 32.2907 64.8905 32.1061C64.9892 31.9216 65.1309 31.7756 65.3112 31.6769C65.4915 31.5781 65.7018 31.5266 65.9336 31.5266C66.1612 31.5266 66.3629 31.5738 66.5432 31.6726C66.7235 31.7713 66.8609 31.9087 66.9596 32.089C67.0584 32.2693 67.1099 32.4753 67.1099 32.7071C67.1185 32.7887 67.1099 32.866 67.1013 32.9347ZM66.4917 32.5311C66.4874 32.3766 66.4316 32.2521 66.3243 32.1577C66.217 32.0632 66.0796 32.016 65.9251 32.016C65.7748 32.016 65.6503 32.0632 65.5473 32.1534C65.4442 32.2435 65.3842 32.368 65.3584 32.5311H66.4917Z" fill="#253A7B"/>
<path d="M68.4624 31.6339C68.5869 31.561 68.7286 31.5266 68.8917 31.5266V32.1577H68.7329C68.544 32.1577 68.4023 32.2006 68.3036 32.2907C68.2091 32.3809 68.1576 32.5354 68.1576 32.7544V33.9435H67.5566V31.5567H68.1576V31.9258C68.2392 31.8056 68.3379 31.7069 68.4624 31.6339Z" fill="#253A7B"/>
</svg>
