<svg width="21" height="16" viewBox="0 0 21 16" fill="none" xmlns="http://www.w3.org/2000/svg">
<path d="M1 7C0.447716 7 4.37011e-07 7.44771 0 8C-4.37011e-07 8.55228 0.447714 9 0.999999 9L1 7ZM20.7071 8.70712C21.0976 8.3166 21.0976 7.68343 20.7071 7.29291L14.3432 0.928943C13.9526 0.538418 13.3195 0.538418 12.9289 0.928942C12.5384 1.31947 12.5384 1.95263 12.9289 2.34316L18.5858 8.00001L12.9289 13.6569C12.5384 14.0474 12.5384 14.6806 12.9289 15.0711C13.3195 15.4616 13.9526 15.4616 14.3431 15.0711L20.7071 8.70712ZM0.999999 9L20 9.00002L20 7.00002L1 7L0.999999 9Z" fill="white"/>
</svg>
