<svg width="24" height="24" viewBox="0 0 24 24" fill="none" xmlns="http://www.w3.org/2000/svg">
<g clip-path="url(#clip0_1_2427)">
<path d="M11.9604 18.0722C11.8618 18.0719 11.7643 18.0509 11.6744 18.0105C11.5844 17.9702 11.5039 17.9113 11.4382 17.8378L4.86069 10.5436C4.77031 10.4425 4.71107 10.3175 4.6901 10.1836C4.66913 10.0496 4.68734 9.91249 4.74252 9.78866C4.7977 9.66482 4.8875 9.55958 5.00112 9.48561C5.11473 9.41163 5.24731 9.37208 5.38288 9.37172H8.01678V2.95312C8.01678 2.76664 8.09086 2.5878 8.22272 2.45594C8.35459 2.32408 8.53343 2.25 8.71991 2.25H15.2027C15.3892 2.25 15.568 2.32408 15.6999 2.45594C15.8318 2.5878 15.9058 2.76664 15.9058 2.95312V9.36984H18.5383C18.6739 9.37021 18.8065 9.40976 18.9201 9.48373C19.0337 9.5577 19.1235 9.66295 19.1787 9.78678C19.2339 9.91062 19.2521 10.0478 19.2311 10.1817C19.2102 10.3156 19.1509 10.4407 19.0605 10.5417L12.4826 17.8397C12.4167 17.9128 12.3361 17.9713 12.2462 18.0114C12.1562 18.0514 12.0588 18.0722 11.9604 18.0722ZM6.9635 10.7761L11.9604 16.3191L16.9577 10.7761H15.2027C15.0162 10.7761 14.8374 10.702 14.7055 10.5702C14.5737 10.4383 14.4996 10.2594 14.4996 10.073V3.65625H9.42303V10.073C9.42303 10.2594 9.34895 10.4383 9.21709 10.5702C9.08523 10.702 8.90639 10.7761 8.71991 10.7761H6.9635Z" fill="black"/>
<path d="M18.3223 21.0937H5.6C4.78854 21.0928 4.01055 20.7701 3.43672 20.1964C2.86288 19.6226 2.54006 18.8447 2.53906 18.0332V16.244C2.53906 16.0575 2.61314 15.8787 2.745 15.7468C2.87686 15.615 3.05571 15.5409 3.24219 15.5409C3.42867 15.5409 3.60751 15.615 3.73937 15.7468C3.87123 15.8787 3.94531 16.0575 3.94531 16.244V18.0332C3.94593 18.4719 4.12048 18.8923 4.43067 19.2024C4.74087 19.5125 5.16138 19.687 5.6 19.6875H18.3223C18.7609 19.687 19.1814 19.5125 19.4915 19.2024C19.8016 18.8923 19.9761 18.4718 19.9766 18.0332V16.244C19.9766 16.0575 20.0506 15.8787 20.1825 15.7468C20.3144 15.615 20.4932 15.5409 20.6797 15.5409C20.8662 15.5409 21.045 15.615 21.1769 15.7468C21.3087 15.8787 21.3828 16.0575 21.3828 16.244V18.0332C21.3818 18.8446 21.0591 19.6225 20.4853 20.1962C19.9116 20.77 19.1337 21.0927 18.3223 21.0937Z" fill="black"/>
</g>
<defs>
<clipPath id="clip0_1_2427">
<rect width="24" height="24" fill="white"/>
</clipPath>
</defs>
</svg>
