<svg width="18" height="18" viewBox="0 0 18 18" fill="none" xmlns="http://www.w3.org/2000/svg">
<path d="M9 17C13.4183 17 17 13.4183 17 9C17 4.58172 13.4183 1 9 1C4.58172 1 1 4.58172 1 9C1 13.4183 4.58172 17 9 17Z" stroke="#222222" stroke-width="1.5" stroke-miterlimit="10"/>
<path d="M9 13.333C9.55228 13.333 10 12.8853 10 12.333C10 11.7807 9.55228 11.333 9 11.333C8.44772 11.333 8 11.7807 8 12.333C8 12.8853 8.44772 13.333 9 13.333Z" fill="#222222"/>
<path d="M7 6.66517C7 6.26996 7.1173 5.88364 7.33706 5.55504C7.55682 5.22644 7.86919 4.97033 8.23464 4.81909C8.60009 4.66785 9.00222 4.62829 9.39018 4.70539C9.77815 4.78248 10.1345 4.97279 10.4142 5.25225C10.6939 5.5317 10.8844 5.88774 10.9616 6.27534C11.0387 6.66295 10.9991 7.06471 10.8478 7.42983C10.6964 7.79495 10.44 8.10702 10.1111 8.32658C9.78225 8.54614 8.59375 8.7296 8.19819 8.7296L9.12681 10.4108" stroke="#222222" stroke-width="1.2" stroke-linecap="round" stroke-linejoin="round"/>
</svg>
