<svg width="50" height="46" viewBox="0 0 50 46" fill="none" xmlns="http://www.w3.org/2000/svg">
<path d="M49.1414 16.3822L26.225 0.382276C25.869 0.133824 25.4401 0 25 0C24.5599 0 24.131 0.133824 23.775 0.382276L0.85856 16.3822C0.411564 16.6941 0.111936 17.1637 0.0255921 17.6876C-0.0171611 17.9471 -0.00626511 18.2121 0.057658 18.4675C0.121581 18.7229 0.23728 18.9637 0.398147 19.1762C0.559015 19.3886 0.761902 19.5686 0.995224 19.7058C1.22855 19.843 1.48773 19.9348 1.75799 19.9758C2.30379 20.0587 2.86154 19.9301 3.30854 19.6182L6.25018 17.5642V42C6.25347 43.0599 6.69352 44.0755 7.4742 44.8249C8.25488 45.5744 9.31276 45.9968 10.4168 46H18.7501V28.0001C18.7501 27.4697 18.9696 26.961 19.3602 26.5859C19.7509 26.2108 20.2808 26.0001 20.8334 26.0001H29.1666C29.7192 26.0001 30.2491 26.2108 30.6398 26.5859C31.0305 26.961 31.2499 27.4697 31.2499 28.0001V46H39.5832C40.6872 45.9968 41.7451 45.5744 42.5258 44.8249C43.3065 44.0755 43.7465 43.0599 43.7498 42V17.5642L46.6915 19.6182C46.9128 19.7726 47.1636 19.8837 47.4297 19.945C47.6957 20.0064 47.9718 20.0169 48.242 19.9758C48.5123 19.9348 48.7715 19.843 49.0048 19.7058C49.2381 19.5686 49.441 19.3886 49.6019 19.1762C49.7627 18.9637 49.8784 18.7229 49.9423 18.4675C50.0063 18.2121 50.0172 17.9471 49.9744 17.6876C49.9317 17.4282 49.8361 17.1794 49.6932 16.9554C49.5503 16.7314 49.3628 16.5366 49.1414 16.3822Z" fill="white"/>
</svg>
