<svg width="48" height="48" viewBox="0 0 48 48" fill="none" xmlns="http://www.w3.org/2000/svg">
<path fill-rule="evenodd" clip-rule="evenodd" d="M46.3448 33.1035H1.65517V26.4829C1.65517 26.026 1.28441 25.6553 0.827586 25.6553C0.370759 25.6553 0 26.026 0 26.4829V37.2414C0 37.9002 0.261517 38.5316 0.727448 38.9967C1.19255 39.4627 1.824 39.7242 2.48276 39.7242H19.536C19.4036 41.9438 18.8284 44.8113 16.7081 46.3448H15.3103C14.8535 46.3448 14.4828 46.7156 14.4828 47.1724C14.4828 47.6292 14.8535 48 15.3103 48H32.6897C33.1465 48 33.5172 47.6292 33.5172 47.1724C33.5172 46.7156 33.1465 46.3448 32.6897 46.3448H31.2919C29.1716 44.8105 28.5964 41.9438 28.464 39.7242H45.5172C46.176 39.7242 46.8074 39.4627 47.2726 38.9967C47.7385 38.5316 48 37.9002 48 37.2414C48 32.2528 48 17.4026 48 12.4139C48 11.7552 47.7385 11.1237 47.2726 10.6586C46.8074 10.1927 46.176 9.9312 45.5172 9.9312H32.2759C31.819 9.9312 31.4483 10.302 31.4483 10.7588C31.4483 11.2156 31.819 11.5864 32.2759 11.5864H45.5172C45.7366 11.5864 45.9476 11.6733 46.1023 11.8288C46.2579 11.9836 46.3448 12.1946 46.3448 12.4139V33.1035ZM9.93104 29.7932H4.96552C4.50869 29.7932 4.13793 30.1639 4.13793 30.6208C4.13793 31.0776 4.50869 31.4483 4.96552 31.4483H9.93104C9.93104 31.9052 10.3018 32.2759 10.7586 32.2759C11.2154 32.2759 11.5862 31.9052 11.5862 31.4483H43.0345C43.4913 31.4483 43.8621 31.0776 43.8621 30.6208C43.8621 30.1639 43.4913 29.7932 43.0345 29.7932H11.5862C11.5862 29.3364 11.2154 28.9656 10.7586 28.9656C10.3018 28.9656 9.93104 29.3364 9.93104 29.7932ZM33.1035 28.9656C34.4748 28.9656 35.5862 27.8542 35.5862 26.4829C35.5862 24.1069 35.5862 19.7554 35.5862 17.3794C35.5862 16.0081 34.4748 14.8967 33.1035 14.8967H14.8966C13.5252 14.8967 12.4138 16.0081 12.4138 17.3794C12.4138 19.7554 12.4138 24.1069 12.4138 26.4829C12.4138 27.8542 13.5252 28.9656 14.8966 28.9656H33.1035ZM27.6968 22.6627C27.9683 22.5196 28.1379 22.2382 28.1379 21.9311C28.1379 21.6241 27.9683 21.3427 27.6968 21.1996L22.2141 18.303C21.9575 18.1673 21.6488 18.1764 21.4006 18.3262C21.1523 18.4752 21 18.7441 21 19.0346V24.8277C21 25.1182 21.1523 25.3871 21.4006 25.5361C21.6488 25.6859 21.9575 25.695 22.2141 25.5593L27.6968 22.6627ZM12.4138 9.9312H2.48276C1.824 9.9312 1.19255 10.1927 0.727448 10.6586C0.261517 11.1237 0 11.7552 0 12.4139C0 14.6302 0 18.793 0 23.1725C0 23.6293 0.370759 24.0001 0.827586 24.0001C1.28441 24.0001 1.65517 23.6293 1.65517 23.1725V12.4139C1.65517 12.1946 1.74207 11.9836 1.89766 11.8288C2.05241 11.6733 2.26345 11.5864 2.48276 11.5864H12.4138C12.8706 11.5864 13.2414 11.2156 13.2414 10.7588C13.2414 10.302 12.8706 9.9312 12.4138 9.9312ZM25.5385 21.9311L22.6552 23.4547V20.4076L25.5385 21.9311ZM14.5134 5.06005L14.515 5.05839L23.6036 0.101172C23.851 -0.033724 24.149 -0.033724 24.3964 0.101172L33.4999 5.06667C33.7655 5.21149 33.931 5.49039 33.931 5.79328C33.931 6.09618 33.7655 6.37508 33.4999 6.5199L30.6207 8.08983V11.5864C30.6207 12.9577 29.5092 14.0691 28.1379 14.0691H19.8621C18.4908 14.0691 17.3793 12.9577 17.3793 11.5864V8.08983L15.7241 7.18776V11.5864C15.7241 12.0432 15.3534 12.4139 14.8966 12.4139C14.4397 12.4139 14.069 12.0432 14.069 11.5864V5.79328C14.069 5.47467 14.2494 5.19825 14.5134 5.06005ZM18.1423 4.9657H21.5172C21.9741 4.9657 22.3448 5.33646 22.3448 5.79328C22.3448 6.25011 21.9741 6.62087 21.5172 6.62087H18.1423L24 9.81616L31.3754 5.79328L24 1.77041L18.1423 4.9657Z" fill="white"/>
</svg>
