<svg width="23" height="15" viewBox="0 0 23 15" fill="none" xmlns="http://www.w3.org/2000/svg">
<path d="M22.3438 6.95312C22.4219 7.10938 22.4609 7.30469 22.4609 7.53906C22.4609 7.73438 22.4219 7.92969 22.3438 8.08594C20.2344 12.2266 16.0156 15 11.25 15C6.44531 15 2.22656 12.2266 0.117188 8.08594C0.0390625 7.92969 0 7.73438 0 7.5C0 7.30469 0.0390625 7.10938 0.117188 6.95312C2.22656 2.8125 6.44531 0 11.25 0C16.0156 0 20.2344 2.8125 22.3438 6.95312ZM11.25 13.125V13.1641C14.3359 13.1641 16.875 10.625 16.875 7.53906V7.5C16.875 4.41406 14.3359 1.875 11.25 1.875C8.125 1.875 5.625 4.41406 5.625 7.5C5.625 10.625 8.125 13.125 11.25 13.125ZM11.25 3.75V3.78906C13.3203 3.78906 15 5.42969 15 7.5C15 9.57031 13.3203 11.25 11.25 11.25C9.17969 11.25 7.5 9.57031 7.5 7.5C7.5 7.1875 7.53906 6.83594 7.61719 6.52344C7.92969 6.75781 8.32031 6.875 8.75 6.875C9.76562 6.875 10.5859 6.05469 10.5859 5.03906C10.5859 4.60938 10.4688 4.21875 10.2344 3.90625C10.5469 3.82812 10.8984 3.78906 11.25 3.75Z" fill="#7E7E7E"/>
</svg>
