<svg width="46" height="43" viewBox="0 0 46 43" fill="none" xmlns="http://www.w3.org/2000/svg">
<path d="M25.168 17.4085L26.9274 17.3994C28.0436 16.2742 29.3912 14.9362 31.1522 15.0355C32.9201 14.9439 34.2608 16.2586 35.3773 17.3994C36.1244 17.427 37.5665 17.3202 38.2658 17.5715V6.79297H7.21484V24.0024H20.0774L20.9526 23.151L20.9714 21.4572C20.9817 20.388 21.4268 19.3653 22.2114 18.6084C22.9959 17.8515 24.0573 17.4207 25.168 17.4085ZM13.3309 13.6314C11.481 13.6046 11.4707 10.943 13.3309 10.9141H32.1497C33.9973 10.9456 34.0081 13.5978 32.1497 13.6314H13.3309Z" fill="#495CBD"/>
<path d="M43.9098 5.42079e-06H1.56766C1.19463 -0.00100963 0.83645 0.140564 0.571802 0.39362C0.307155 0.646676 0.157691 0.990515 0.15625 1.34959V29.4373C0.157337 29.7973 0.306387 30.1422 0.570841 30.3968C0.835296 30.6514 1.19366 30.7949 1.56766 30.7959H20.4523C19.2017 29.7317 18.2766 28.3369 18.5422 26.72H5.80187C5.42788 26.7189 5.06951 26.5755 4.80506 26.3209C4.5406 26.0663 4.39155 25.7213 4.39047 25.3613V5.43458C4.39021 5.25609 4.42654 5.0793 4.49737 4.91435C4.56821 4.7494 4.67216 4.59952 4.80328 4.47331C4.93439 4.3471 5.09009 4.24703 5.26144 4.17884C5.4328 4.11065 5.61645 4.07568 5.80187 4.07593H39.6756C40.0496 4.07697 40.408 4.22044 40.6724 4.47501C40.9369 4.72958 41.0859 5.07456 41.087 5.43458V20.1169C41.4449 20.8838 41.3255 22.3155 41.3505 23.1512L42.5926 24.3558C44.5776 26.3715 43.9755 29.1286 41.8492 30.7959H43.9098C44.2833 30.7933 44.6407 30.6494 44.9049 30.3951C45.169 30.1409 45.3186 29.7968 45.3212 29.4373V1.34959C45.3182 0.990993 45.1682 0.648048 44.9039 0.395323C44.6396 0.142598 44.2824 0.000528244 43.9098 5.42079e-06Z" fill="#495CBD"/>
<path d="M39.2709 37.0098L35.3755 37.037L33.5781 38.7398L34.978 42.4494C35.0098 42.5336 35.0668 42.6068 35.1418 42.6598C35.2168 42.7128 35.3065 42.7432 35.3994 42.7471C35.4923 42.7511 35.5844 42.7284 35.664 42.682C35.7435 42.6356 35.807 42.5675 35.8464 42.4864L37.1537 39.7905L39.9432 41.0472C40.0275 41.0852 40.1216 41.0982 40.2136 41.0846C40.3057 41.0711 40.3914 41.0316 40.4601 40.9711C40.5288 40.9106 40.5772 40.8319 40.5994 40.7448C40.6216 40.6578 40.6164 40.5664 40.5846 40.4822L39.2709 37.0098Z" fill="#495CBD"/>
<path d="M23.0433 37.0098L21.7295 40.4822C21.6977 40.5664 21.6925 40.6578 21.7147 40.7449C21.7369 40.8319 21.7853 40.9106 21.854 40.9711C21.9227 41.0316 22.0084 41.0711 22.1005 41.0847C22.1925 41.0982 22.2866 41.0852 22.3709 41.0472L25.1604 39.7905L26.4682 42.4872C26.5076 42.5684 26.571 42.6364 26.6505 42.6828C26.73 42.7293 26.822 42.7519 26.9149 42.748C27.0078 42.7441 27.0974 42.7137 27.1724 42.6608C27.2474 42.6078 27.3043 42.5347 27.3361 42.4505L28.736 38.7489L26.9293 37.037L23.0433 37.0098Z" fill="#495CBD"/>
<path d="M38.5431 24.2729L38.522 21.4742C38.5192 21.1181 38.371 20.7773 38.1095 20.5255C37.8479 20.2737 37.4938 20.131 37.1239 20.1284L34.2165 20.1081L32.1465 18.1441C31.883 17.8941 31.5279 17.7539 31.1579 17.7539C30.7879 17.7539 30.4328 17.8941 30.1693 18.1441L28.0995 20.1081L25.1921 20.1284C24.8222 20.1309 24.4681 20.2735 24.2065 20.5253C23.9449 20.7771 23.7967 21.118 23.7941 21.4741L23.7727 24.2729L21.7326 26.2653C21.4728 26.5189 21.3271 26.8608 21.3271 27.217C21.3271 27.5732 21.4728 27.915 21.7326 28.1687L23.7727 30.1613L23.7939 32.9599C23.7966 33.316 23.9448 33.6568 24.2064 33.9086C24.468 34.1605 24.822 34.3031 25.192 34.3057L28.0993 34.3261L30.1694 36.2901C30.4329 36.5401 30.788 36.6802 31.158 36.6802C31.5279 36.6802 31.8831 36.5401 32.1466 36.2901L34.2163 34.3261L37.1237 34.3057C37.4936 34.3031 37.8477 34.1605 38.1093 33.9087C38.3709 33.6569 38.5191 33.3161 38.5218 32.96L38.5431 30.1613L40.5833 28.1687C40.843 27.9151 40.9887 27.5733 40.9887 27.2171C40.9887 26.8609 40.843 26.5191 40.5833 26.2654L38.5431 24.2729ZM31.158 30.8401C26.1832 30.6924 26.1841 23.7411 31.158 23.594C36.1329 23.7419 36.1317 30.6929 31.158 30.8401Z" fill="#495CBD"/>
</svg>
