<svg width="36" height="27" viewBox="0 0 36 27" fill="none" xmlns="http://www.w3.org/2000/svg">
<path d="M22.916 18.25C22.5059 18.25 22.0957 17.8398 22.0957 17.4297V8.20117C22.0957 7.79102 22.5059 7.3125 22.916 7.3125H25.582C25.9922 7.3125 26.4707 7.79102 26.4707 8.20117V17.4297C26.4707 17.8398 25.9922 18.25 25.582 18.25H22.916ZM29.4785 18.25C29.0684 18.25 28.6582 17.8398 28.6582 17.4297V1.63867C28.6582 1.22852 29.0684 0.75 29.4785 0.75H32.1445C32.5547 0.75 33.0332 1.22852 33.0332 1.63867V17.4297C33.0332 17.8398 32.5547 18.25 32.1445 18.25H29.4785ZM9.79102 18.25C9.38086 18.25 8.9707 17.8398 8.9707 17.4297V12.5762C8.9707 12.166 9.38086 11.6875 9.79102 11.6875H12.457C12.8672 11.6875 13.3457 12.166 13.3457 12.5762V17.4297C13.3457 17.8398 12.8672 18.25 12.457 18.25H9.79102ZM16.3535 18.25C15.9434 18.25 15.5332 17.8398 15.5332 17.4297V3.82617C15.5332 3.41602 15.9434 2.9375 16.3535 2.9375H19.0195C19.4297 2.9375 19.9082 3.41602 19.9082 3.82617V17.4297C19.9082 17.8398 19.4297 18.25 19.0195 18.25H16.3535ZM34.127 22.625C34.6738 22.625 35.2207 23.1719 35.2207 23.7188V25.9062C35.2207 26.5215 34.6738 27 34.127 27H2.4082C1.17773 27 0.220703 26.043 0.220703 24.8125V1.84375C0.220703 1.29688 0.699219 0.75 1.31445 0.75H3.50195C4.04883 0.75 4.5957 1.29688 4.5957 1.84375V22.625H34.127Z" fill="#495CBD"/>
</svg>
