<svg width="37" height="37" viewBox="0 0 37 37" fill="none" xmlns="http://www.w3.org/2000/svg">
<path d="M32.5117 18.875L35.6562 21.9512C36.6133 22.8398 36.1348 24.4121 34.9043 24.7539L30.666 25.8477L31.8281 30.0859C32.1699 31.3164 31.0762 32.4102 29.8457 32.0684L25.6074 30.9062L24.5137 35.1445C24.1719 36.4434 22.5996 36.8535 21.7109 35.8965L18.7031 32.752L15.627 35.8965C14.7383 36.7852 13.166 36.4434 12.8242 35.1445L11.7305 30.9062L7.49219 32.0684C6.26172 32.4102 5.16797 31.3164 5.50977 30.0859L6.67188 25.8477L2.43359 24.7539C1.20312 24.4121 0.724609 22.8398 1.68164 21.9512L4.82617 18.875L1.68164 15.7988C0.724609 14.9102 1.20312 13.3379 2.43359 13.0645L6.67188 11.9707L5.50977 7.73242C5.16797 6.50195 6.26172 5.33984 7.49219 5.68164L11.7305 6.91211L12.8242 2.60547C13.0977 1.375 14.7383 0.964844 15.627 1.92188L18.7031 5.06641L21.7109 1.92188C22.5996 0.964844 24.2402 1.44336 24.5137 2.60547L25.6074 6.91211L29.8457 5.68164C31.0762 5.33984 32.1699 6.50195 31.8281 7.73242L30.666 11.9707L34.9043 13.0645C36.1348 13.3379 36.6133 14.9102 35.6562 15.7988L32.5117 18.875Z" fill="#495CBD"/>
</svg>
