<svg width="36" height="32" viewBox="0 0 36 32" fill="none" xmlns="http://www.w3.org/2000/svg">
<path d="M35.0312 8.21875V27.9062C35.0312 29.752 33.5273 31.1875 31.75 31.1875H3.3125C1.4668 31.1875 0.03125 29.752 0.03125 27.9062V8.21875C0.03125 6.44141 1.4668 4.9375 3.3125 4.9375H9.32812L10.1484 2.75C10.627 1.45117 11.8574 0.5625 13.2246 0.5625H21.7695C23.1367 0.5625 24.3672 1.45117 24.8457 2.75L25.7344 4.9375H31.75C33.5273 4.9375 35.0312 6.44141 35.0312 8.21875ZM25.7344 18.0625C25.7344 13.5508 22.043 9.85938 17.5312 9.85938C12.9512 9.85938 9.32812 13.5508 9.32812 18.0625C9.32812 22.6426 12.9512 26.2656 17.5312 26.2656C22.043 26.2656 25.7344 22.6426 25.7344 18.0625ZM23.5469 18.0625C23.5469 21.4121 20.8125 24.0781 17.5312 24.0781C14.1816 24.0781 11.5156 21.4121 11.5156 18.0625C11.5156 14.7812 14.1816 12.0469 17.5312 12.0469C20.8125 12.0469 23.5469 14.7812 23.5469 18.0625Z" fill="#495CBD"/>
</svg>
